<svg xmlns="http://www.w3.org/2000/svg" width="1200" height="700" viewBox="0 0 1200 700">
  <defs>
    <style>
      .a {
        fill: #eeefed;
      }

      .b {
        fill: #ccc;
      }

      .c, .f {
        fill: none;
        stroke-width: 2.5px;
      }

      .c, .g {
        stroke: #000;
      }

      .c, .f, .g {
        stroke-miterlimit: 10;
      }

      .d {
        fill: #f9b443;
      }

      .e, .g {
        fill: #fff;
      }

      .f {
        stroke: #999;
      }

      .g {
        stroke-width: 3px;
      }

      .h {
        fill: #e6e6e6;
      }

      .i {
        fill: #ea9b28;
      }
    </style>
  </defs>
  <rect class="a" x="25.1868" y="10.8102" width="1149.6264" height="669.5723" rx="64.3444"/>
  <rect class="b" x="162.8677" y="28.8014" width="617.6445" height="447.05" rx="28.1715"/>
  <polyline class="c" points="275.67 156.698 275.67 196.991 299.524 196.991 299.524 280.597"/>
  <rect class="d" x="288.2208" y="524.943" width="748.9115" height="16.5137" rx="5.9621"/>
  <rect class="d" x="288.2208" y="610.9431" width="748.9115" height="16.5137" rx="5.9621"/>
  <rect class="d" x="824.0493" y="28.8014" width="219.4764" height="447.05" rx="16.7932"/>
  <rect class="e" x="843.0518" y="89.8377" width="181.6378" height="368.1481" rx="13.8636"/>
  <g>
    <path d="M354.574,61.0268l.2988,2.5987a17.29,17.29,0,0,1-5.083.6445q-3.68,0-5.1748-1.8408t-1.4951-6.37q0-4.5307,1.4951-6.3711t5.1748-1.8409a19.4973,19.4973,0,0,1,4.7608.5293l-.2989,2.6221q-1.8632-.1143-4.4619-.1152a2.4888,2.4888,0,0,0-2.3574,1.0928,9.0133,9.0133,0,0,0-.6328,4.083,9.0085,9.0085,0,0,0,.6328,4.082,2.4871,2.4871,0,0,0,2.3574,1.0928A40.4343,40.4343,0,0,0,354.574,61.0268Z"/>
    <path d="M364.1414,59.4624h-4.0938a2.35,2.35,0,0,0,.7471,1.668,3.3982,3.3982,0,0,0,1.9434.4248,41.1778,41.1778,0,0,0,4.2324-.253l.3223,2.1162a11.6554,11.6554,0,0,1-4.9453.8516q-3.1979,0-4.5538-1.38-1.3578-1.3813-1.3574-4.5547,0-3.3339,1.3223-4.6689,1.3227-1.333,4.4512-1.334a6.757,6.757,0,0,1,4.0937.9775,3.5876,3.5876,0,0,1,1.2881,2.9786,3.1811,3.1811,0,0,1-.8164,2.3808A3.6857,3.6857,0,0,1,364.1414,59.4624Zm-4.1631-2.0469h3.22a.985.985,0,0,0,.84-.2988,1.47,1.47,0,0,0,.2187-.874,1.3153,1.3153,0,0,0-.414-1.1153,2.6687,2.6687,0,0,0-1.5186-.3105,2.4184,2.4184,0,0,0-1.7939.5176A3.41,3.41,0,0,0,359.9783,57.4155Z"/>
    <path d="M372.5594,52.6548l.2529,1.6787a7.7377,7.7377,0,0,1,4.8525-2.001,3.2244,3.2244,0,0,1,2.3584.8047,3.155,3.155,0,0,1,.8164,2.3467v8.51h-3.3818V56.5415a1.6725,1.6725,0,0,0-.2412-1.0459,1.0774,1.0774,0,0,0-.8623-.2881,7.9408,7.9408,0,0,0-3.1514,1.0352v7.7509H369.8V52.6548Z"/>
    <path d="M387.993,54.9321v5.3584a1.1869,1.1869,0,0,0,.2754.8975,1.4308,1.4308,0,0,0,.9658.2529h1.4492l.3682,2.3691a9.7449,9.7449,0,0,1-3.1973.46,3.2077,3.2077,0,0,1-2.3916-.8633,3.2722,3.2722,0,0,1-.8506-2.4033V54.9321H382.61V52.77l2.002-.1152V49.4809h3.3809v3.1739h3.15v2.2773Z"/>
    <path d="M401.1717,52.3325l-.3448,3.1514h-.92a12.3947,12.3947,0,0,0-3.4736.7822v7.7275H393.03V52.6548h2.6445l.2988,1.6562a7.1477,7.1477,0,0,1,4.6006-1.9785Z"/>
    <path d="M403.0574,55.185l-.3223-2.3007a33.3514,33.3514,0,0,1,5.9112-.5518,5.1021,5.1021,0,0,1,3.3808.9316,4.09,4.09,0,0,1,1.0811,3.2315v7.498h-2.6914l-.3447-1.7246a5.29,5.29,0,0,1-4.1856,2.001,4.0258,4.0258,0,0,1-2.668-.8633,2.9546,2.9546,0,0,1-1.0351-2.4033V59.854a2.591,2.591,0,0,1,.92-2.1162,3.8991,3.8991,0,0,1,2.5527-.7588h4.0479v-.5069a1.4935,1.4935,0,0,0-.4023-1.1728,2.5078,2.5078,0,0,0-1.46-.2988Q405.9549,55.0005,403.0574,55.185Zm2.4834,4.9219v.4365q0,1.1734,1.334,1.1729a4.69,4.69,0,0,0,2.8291-1.1035V59.0259h-3.0586Q405.5409,59.0493,405.5408,60.1069Z"/>
    <path d="M419.2029,47.894V60.2905q0,1.15,1.2881,1.15h.92l.3916,2.3691a6.1,6.1,0,0,1-2.7138.46,3.3681,3.3681,0,0,1-2.3926-.8164,3.0087,3.0087,0,0,1-.874-2.3115V47.894Z"/>
    <path d="M430.5877,52.6548l.2529,1.6562a5.2849,5.2849,0,0,1,1.9668-1.4033,6.2452,6.2452,0,0,1,2.541-.5518q3.91,0,3.91,6.0713,0,3.2667-1.0469,4.5655a3.9555,3.9555,0,0,1-3.2773,1.3,6.2242,6.2242,0,0,1-3.795-1.1036,18.16,18.16,0,0,1,.0694,2.4375v2.7373h-3.3809V52.6548Zm.6211,3.45v5.1972a11.9056,11.9056,0,0,0,2.5762.46,1.72,1.72,0,0,0,1.5517-.6436,5.5447,5.5447,0,0,0,.4258-2.6914,6.2544,6.2544,0,0,0-.3906-2.7021,1.4431,1.4431,0,0,0-1.38-.7012A5.4446,5.4446,0,0,0,431.2088,56.105Z"/>
    <path d="M449.7693,52.3325l-.3447,3.1514h-.92a12.3952,12.3952,0,0,0-3.4737.7822v7.7275h-3.4033V52.6548h2.6446l.2988,1.6562a7.1473,7.1473,0,0,1,4.6006-1.9785Z"/>
    <path d="M456.6,52.3325q3.1743,0,4.4971,1.3682,1.3212,1.37,1.3222,4.6347t-1.3222,4.6114q-1.3229,1.3461-4.4971,1.3457-3.1963,0-4.5195-1.3457t-1.3223-4.6114q0-3.2886,1.3223-4.6455T456.6,52.3325Zm0,2.5527a2.04,2.04,0,0,0-1.8164.6905,5.53,5.53,0,0,0-.46,2.76,5.3992,5.3992,0,0,0,.46,2.7139,2.04,2.04,0,0,0,1.8164.69,2.0168,2.0168,0,0,0,1.7832-.69,5.3067,5.3067,0,0,0,.4707-2.7139,5.5484,5.5484,0,0,0-.46-2.748A1.995,1.995,0,0,0,456.6,54.8852Z"/>
    <path d="M474.035,61.3022l.2988,2.208a11.0561,11.0561,0,0,1-4.3936.76q-3.1273,0-4.4043-1.3457T464.26,58.313q0-3.29,1.288-4.6348,1.2876-1.3462,4.44-1.3457a10.4433,10.4433,0,0,1,4.1855.7129l-.3681,2.1162q-2.4845-.0454-3.2432-.0459a2.786,2.786,0,0,0-2.15.667,3.9681,3.9681,0,0,0-.5859,2.53,3.9649,3.9649,0,0,0,.5859,2.5293,2.7821,2.7821,0,0,0,2.15.667A25.2092,25.2092,0,0,0,474.035,61.3022Z"/>
    <path d="M483.4646,59.4624h-4.0937a2.35,2.35,0,0,0,.7471,1.668,3.3979,3.3979,0,0,0,1.9433.4248,41.1746,41.1746,0,0,0,4.2324-.253l.3223,2.1162a11.6551,11.6551,0,0,1-4.9453.8516q-3.1977,0-4.5537-1.38-1.358-1.3813-1.3574-4.5547,0-3.3339,1.3222-4.6689,1.3229-1.333,4.4512-1.334a6.757,6.757,0,0,1,4.0937.9775,3.5876,3.5876,0,0,1,1.2881,2.9786,3.1807,3.1807,0,0,1-.8164,2.3808A3.6856,3.6856,0,0,1,483.4646,59.4624Zm-4.163-2.0469h3.22a.9849.9849,0,0,0,.84-.2988,1.47,1.47,0,0,0,.2188-.874,1.3153,1.3153,0,0,0-.4141-1.1153,2.6683,2.6683,0,0,0-1.5185-.3105,2.4186,2.4186,0,0,0-1.794.5176A3.41,3.41,0,0,0,479.3016,57.4155Z"/>
    <path d="M494.16,59.7846l-2.8291-.7587a4.0652,4.0652,0,0,1-2.1622-1.2539,3.5723,3.5723,0,0,1-.5986-2.1963,2.7983,2.7983,0,0,1,1.0928-2.5069,6.997,6.997,0,0,1,3.7373-.7363,33.1524,33.1524,0,0,1,5.2441.4375l-.2295,2.1846q-2.8989-.0454-4.37-.0459-.8056,0-1.1152.0117a3.4665,3.4665,0,0,0-.6211.08c-.207.0459-.334.1191-.38.2187a1.118,1.118,0,0,0-.0693.4483,1.64,1.64,0,0,0,.0117.207.453.453,0,0,0,.0576.1728,1.2165,1.2165,0,0,0,.08.126.4675.4675,0,0,0,.1269.1035,1.002,1.002,0,0,0,.15.0811c.038.0156.1074.042.207.08s.1758.0654.2305.081c.0527.0147.1523.042.2988.08s.2558.0654.333.08l2.8984.7822a4.5329,4.5329,0,0,1,2.1621,1.1621,3.1489,3.1489,0,0,1,.6436,2.15,2.97,2.97,0,0,1-1.1729,2.7481,8.1213,8.1213,0,0,1-4.0254.7246,30.7979,30.7979,0,0,1-5.083-.3907l.2071-2.208q.8291.0454,3.9336.0459a10.9643,10.9643,0,0,0,2.3115-.1494.6671.6671,0,0,0,.54-.7021,1.6628,1.6628,0,0,0-.0117-.2071.47.47,0,0,0-.0566-.1718.6228.6228,0,0,0-.0928-.127.721.721,0,0,0-.1494-.1035c-.0684-.0381-.1231-.0684-.1612-.0918a1.3625,1.3625,0,0,0-.2177-.0918c-.1074-.0381-.1924-.0654-.253-.0811s-.1689-.042-.3222-.08A2.6834,2.6834,0,0,1,494.16,59.7846Z"/>
    <path d="M506.281,59.7846l-2.8291-.7587A4.0653,4.0653,0,0,1,501.29,57.772a3.5723,3.5723,0,0,1-.5986-2.1963,2.7983,2.7983,0,0,1,1.0928-2.5069,6.997,6.997,0,0,1,3.7373-.7363,33.1524,33.1524,0,0,1,5.2441.4375l-.2295,2.1846q-2.8989-.0454-4.37-.0459-.8057,0-1.1152.0117a3.4654,3.4654,0,0,0-.6211.08c-.207.0459-.334.1191-.38.2187a1.118,1.118,0,0,0-.0693.4483,1.64,1.64,0,0,0,.0117.207.453.453,0,0,0,.0576.1728,1.2165,1.2165,0,0,0,.08.126.4675.4675,0,0,0,.1269.1035,1.0068,1.0068,0,0,0,.1494.0811c.0381.0156.1075.042.2071.08s.1758.0654.23.081c.0528.0147.1524.042.2989.08s.2558.0654.333.08l2.8984.7822a4.5329,4.5329,0,0,1,2.1621,1.1621,3.1489,3.1489,0,0,1,.6436,2.15,2.97,2.97,0,0,1-1.1729,2.7481,8.1213,8.1213,0,0,1-4.0254.7246,30.7979,30.7979,0,0,1-5.083-.3907l.2071-2.208q.829.0454,3.9336.0459a10.9643,10.9643,0,0,0,2.3115-.1494.6671.6671,0,0,0,.54-.7021,1.6628,1.6628,0,0,0-.0117-.2071.47.47,0,0,0-.0566-.1718.6228.6228,0,0,0-.0928-.127.721.721,0,0,0-.1494-.1035c-.0684-.0381-.1231-.0684-.1612-.0918a1.3625,1.3625,0,0,0-.2177-.0918c-.1075-.0381-.1924-.0654-.253-.0811s-.1689-.042-.3222-.08A2.691,2.691,0,0,1,506.281,59.7846Z"/>
    <path d="M514.3767,47.6411h1.5176a.874.874,0,0,1,.9893.9883v1.2422a.8747.8747,0,0,1-.9893.9892h-1.5176a.8746.8746,0,0,1-.9892-.9892V48.6294A.874.874,0,0,1,514.3767,47.6411Zm2.461,16.3525h-3.3809V52.6548h3.3809Z"/>
    <path d="M522.4725,52.6548l.2529,1.6787a7.7377,7.7377,0,0,1,4.8525-2.001,3.2244,3.2244,0,0,1,2.3584.8047,3.155,3.155,0,0,1,.8164,2.3467v8.51h-3.3818V56.5415a1.6725,1.6725,0,0,0-.2412-1.0459,1.0777,1.0777,0,0,0-.8623-.2881,7.9408,7.9408,0,0,0-3.1514,1.0352v7.7509h-3.4033V52.6548Z"/>
    <path d="M544.9441,54.15l-1.4267.1836a4.1606,4.1606,0,0,1,.2763,1.6328,3.182,3.182,0,0,1-1.1845,2.8066,7.6078,7.6078,0,0,1-4.1514.8282,16.41,16.41,0,0,1-1.9551-.1153.82.82,0,0,0-.1035.8281.8426.8426,0,0,0,.7705.5284l4.1172.4834a4.0637,4.0637,0,0,1,2.5186,1.0117,3.3025,3.3025,0,0,1,.77,2.3691,3.0927,3.0927,0,0,1-1.3,2.9209,10.0334,10.0334,0,0,1-4.6573.7588q-3.4965,0-4.7382-.7236a2.8123,2.8123,0,0,1-1.2422-2.6572,2.4185,2.4185,0,0,1,.4023-1.4375,3.4786,3.4786,0,0,1,1.3916-1.0235,2.2851,2.2851,0,0,1,.3682-3.4961,3.04,3.04,0,0,1-1.6787-3.0586,3.1937,3.1937,0,0,1,1.1963-2.8291,7.6674,7.6674,0,0,1,4.1621-.8281,11.4372,11.4372,0,0,1,2.9677.3223h3.6563ZM539.47,63.5571l-2.8515-.3a1.6957,1.6957,0,0,0-.7364,1.3115q0,.8277.5059,1.0576a10.3786,10.3786,0,0,0,4.4043-.0117.98.98,0,0,0,.541-1c0-.3994-.1152-.6513-.3447-.7588A6.1349,6.1349,0,0,0,539.47,63.5571Zm-1.0117-6.1182a3.2425,3.2425,0,0,0,1.7139-.3222,1.2956,1.2956,0,0,0,.4707-1.15,1.2719,1.2719,0,0,0-.46-1.1494,3.4476,3.4476,0,0,0-1.7246-.2989,3.5165,3.5165,0,0,0-1.7363.2989,1.2579,1.2579,0,0,0-.4717,1.1494,1.2933,1.2933,0,0,0,.4717,1.15A3.297,3.297,0,0,0,538.4578,57.4389Z"/>
    <path d="M562.5613,52.6548V63.9936H559.87l-.2529-1.5644a7.5415,7.5415,0,0,1-4.6914,1.8633q-3.1979,0-3.1973-3.15V52.6548h3.4043v7.4521a1.45,1.45,0,0,0,.2529,1.0352,1.2771,1.2771,0,0,0,.9659.2988,6.9473,6.9473,0,0,0,2.8291-.9434V52.6548Z"/>
    <path d="M568.1277,52.6548l.253,1.6787a7.7377,7.7377,0,0,1,4.8525-2.001,3.2246,3.2246,0,0,1,2.3584.8047,3.1554,3.1554,0,0,1,.8164,2.3467v8.51h-3.3818V56.5415a1.6725,1.6725,0,0,0-.2412-1.0459,1.0778,1.0778,0,0,0-.8624-.2881,7.94,7.94,0,0,0-3.1513,1.0352v7.7509H565.368V52.6548Z"/>
    <path d="M580.157,47.6411h1.5176a.874.874,0,0,1,.9893.9883v1.2422a.8747.8747,0,0,1-.9893.9892H580.157a.8746.8746,0,0,1-.9892-.9892V48.6294A.8739.8739,0,0,1,580.157,47.6411Zm2.461,16.3525h-3.3809V52.6548h3.3809Z"/>
    <path d="M589.909,54.9321v5.3584a1.1869,1.1869,0,0,0,.2754.8975,1.4308,1.4308,0,0,0,.9658.2529h1.4492l.3682,2.3691a9.7449,9.7449,0,0,1-3.1973.46,3.2079,3.2079,0,0,1-2.3916-.8633,3.2722,3.2722,0,0,1-.8506-2.4033V54.9321h-2.0019V52.77l2.0019-.1152V49.4809h3.3809v3.1739h3.15v2.2773Z"/>
  </g>
  <g>
    <path d="M354.951,101.5376v7.96h-2.24l-.2793-1.38a5.3349,5.3349,0,0,1-3.98,1.64,3.6362,3.6362,0,0,1-3.3594-1.7,10.9569,10.9569,0,0,1-1.04-5.5q0-4.0386,1.3691-5.5791t4.81-1.54a16.14,16.14,0,0,1,4.24.48l-.24,2.24q-2.26-.1-3.9-.1006a5.5621,5.5621,0,0,0-1.45.15,1.8261,1.8261,0,0,0-.93.65,2.9288,2.9288,0,0,0-.54,1.39,16.3782,16.3782,0,0,0-.14,2.41,8.887,8.887,0,0,0,.48,3.54,1.8059,1.8059,0,0,0,1.78.96,5.1625,5.1625,0,0,0,2.4805-.7v-4.92Z"/>
    <path d="M363.5105,105.5571H359.951a2.039,2.039,0,0,0,.6494,1.45,2.9461,2.9461,0,0,0,1.69.37,35.9214,35.9214,0,0,0,3.68-.22l.28,1.84a10.1368,10.1368,0,0,1-4.3.74,5.41,5.41,0,0,1-3.96-1.2,5.5118,5.5118,0,0,1-1.1807-3.96q0-2.9,1.15-4.0605a5.3226,5.3226,0,0,1,3.87-1.1592,5.8745,5.8745,0,0,1,3.56.85,3.1177,3.1177,0,0,1,1.12,2.59,2.767,2.767,0,0,1-.71,2.07A3.2023,3.2023,0,0,1,363.5105,105.5571Zm-3.62-1.7793h2.8a.8555.8555,0,0,0,.7305-.2607,1.28,1.28,0,0,0,.1894-.76,1.14,1.14,0,0,0-.3593-.97,2.3229,2.3229,0,0,0-1.32-.27,2.1049,2.1049,0,0,0-1.56.45A2.9605,2.9605,0,0,0,359.89,103.7778Z"/>
    <path d="M370.8309,99.6372l.22,1.46a6.7326,6.7326,0,0,1,4.22-1.7392,2.8046,2.8046,0,0,1,2.0508.6992,2.7463,2.7463,0,0,1,.71,2.04v7.4h-2.94v-6.48a1.4584,1.4584,0,0,0-.21-.9092.9375.9375,0,0,0-.75-.25,6.9143,6.9143,0,0,0-2.74.8994v6.74h-2.96v-9.86Z"/>
    <path d="M386.69,105.5571h-3.56a2.039,2.039,0,0,0,.6494,1.45,2.9461,2.9461,0,0,0,1.69.37,35.9214,35.9214,0,0,0,3.68-.22l.28,1.84a10.1368,10.1368,0,0,1-4.3.74,5.41,5.41,0,0,1-3.96-1.2,5.5118,5.5118,0,0,1-1.1807-3.96q0-2.9,1.15-4.0605a5.3225,5.3225,0,0,1,3.87-1.1592,5.8746,5.8746,0,0,1,3.56.85,3.1177,3.1177,0,0,1,1.12,2.59,2.767,2.767,0,0,1-.71,2.07A3.2023,3.2023,0,0,1,386.69,105.5571Zm-3.62-1.7793h2.8a.8555.8555,0,0,0,.7305-.2607,1.28,1.28,0,0,0,.1894-.76,1.14,1.14,0,0,0-.3593-.97,2.3231,2.3231,0,0,0-1.32-.27,2.1047,2.1047,0,0,0-1.56.45A2.96,2.96,0,0,0,383.07,103.7778Z"/>
    <path d="M398.69,99.3579l-.3,2.7392h-.8a10.8016,10.8016,0,0,0-3.02.6807v6.72h-2.96v-9.86h2.3l.2607,1.44a6.2166,6.2166,0,0,1,4-1.72Z"/>
    <path d="M400.3309,101.8374l-.28-2a28.8953,28.8953,0,0,1,5.14-.48,4.44,4.44,0,0,1,2.94.81,3.5591,3.5591,0,0,1,.9394,2.81v6.52h-2.34l-.3-1.5a4.6007,4.6007,0,0,1-3.64,1.74,3.5013,3.5013,0,0,1-2.32-.75,2.5707,2.5707,0,0,1-.9-2.09v-1a2.2555,2.2555,0,0,1,.8-1.8408,3.3951,3.3951,0,0,1,2.2207-.6592H406.11v-.44a1.2982,1.2982,0,0,0-.35-1.0195,2.176,2.176,0,0,0-1.27-.2608Q402.8509,101.6772,400.3309,101.8374Zm2.1591,4.28v.38q0,1.02,1.16,1.02a4.0789,4.0789,0,0,0,2.46-.96v-1.38h-2.66A.8513.8513,0,0,0,402.49,106.1177Z"/>
    <path d="M414.37,95.4975v10.78q0,1.0005,1.12,1h.8l.3409,2.06a5.2956,5.2956,0,0,1-2.36.4,2.93,2.93,0,0,1-2.08-.71,2.6164,2.6164,0,0,1-.76-2.0107v-11.52Z"/>
    <path d="M423.531,105.3774h-5.96V103.438h5.96Z"/>
    <path d="M428.31,99.6372l.22,1.44a4.5929,4.5929,0,0,1,1.71-1.22,5.4309,5.4309,0,0,1,2.21-.4805q3.4,0,3.4,5.28a6.4927,6.4927,0,0,1-.91,3.97,3.44,3.44,0,0,1-2.85,1.13,5.4056,5.4056,0,0,1-3.3008-.96,15.7708,15.7708,0,0,1,.0606,2.12v2.38h-2.94v-13.66Zm.54,3v4.52a10.3887,10.3887,0,0,0,2.24.3994,1.4994,1.4994,0,0,0,1.35-.56,4.8346,4.8346,0,0,0,.37-2.34,5.4453,5.4453,0,0,0-.34-2.3506,1.2569,1.2569,0,0,0-1.2-.6094A4.7412,4.7412,0,0,0,428.85,102.6372Z"/>
    <path d="M447.27,99.6372v9.86h-2.34l-.2207-1.36a6.5572,6.5572,0,0,1-4.0791,1.62,2.44,2.44,0,0,1-2.78-2.74v-7.38h2.96v6.48a1.2582,1.2582,0,0,0,.22.8994,1.1094,1.1094,0,0,0,.84.2607,6.0384,6.0384,0,0,0,2.46-.82v-6.82Z"/>
    <path d="M456.79,99.3579l-.3,2.7392h-.8a10.8016,10.8016,0,0,0-3.0205.6807v6.72h-2.96v-9.86h2.3l.2607,1.44a6.2166,6.2166,0,0,1,4-1.72Z"/>
    <path d="M460.61,99.6372l.22,1.44a4.5929,4.5929,0,0,1,1.71-1.22,5.4309,5.4309,0,0,1,2.21-.4805q3.4,0,3.4,5.28a6.4927,6.4927,0,0,1-.91,3.97,3.44,3.44,0,0,1-2.85,1.13,5.4056,5.4056,0,0,1-3.3008-.96,15.7543,15.7543,0,0,1,.0606,2.12v2.38h-2.94v-13.66Zm.54,3v4.52a10.3887,10.3887,0,0,0,2.24.3994,1.4994,1.4994,0,0,0,1.35-.56,4.8346,4.8346,0,0,0,.37-2.34,5.4453,5.4453,0,0,0-.34-2.3506,1.2568,1.2568,0,0,0-1.2-.6094A4.7412,4.7412,0,0,0,461.15,102.6372Z"/>
    <path d="M474.87,99.3579a5.2976,5.2976,0,0,1,3.91,1.1894q1.15,1.191,1.15,4.03t-1.15,4.01a5.3536,5.3536,0,0,1-3.91,1.17q-2.78,0-3.93-1.17t-1.15-4.01q0-2.8593,1.15-4.04T474.87,99.3579Zm0,2.22a1.7754,1.7754,0,0,0-1.58.6,4.8243,4.8243,0,0,0-.3994,2.4,4.7091,4.7091,0,0,0,.3994,2.36,1.7754,1.7754,0,0,0,1.58.6,1.7535,1.7535,0,0,0,1.55-.6,4.6053,4.6053,0,0,0,.41-2.36,4.8255,4.8255,0,0,0-.3994-2.39A1.736,1.736,0,0,0,474.87,101.5776Z"/>
    <path d="M486.33,105.8374l-2.46-.66a3.5386,3.5386,0,0,1-1.88-1.09,3.1116,3.1116,0,0,1-.5195-1.91,2.4331,2.4331,0,0,1,.95-2.18,6.0852,6.0852,0,0,1,3.25-.64,28.7544,28.7544,0,0,1,4.56.38l-.2,1.8994q-2.52-.04-3.8-.04-.7,0-.97.0108a2.9961,2.9961,0,0,0-.54.0693c-.1807.04-.29.1035-.33.1905a.9714.9714,0,0,0-.06.39,1.4346,1.4346,0,0,0,.0107.1807.3776.3776,0,0,0,.05.1494.9236.9236,0,0,0,.07.11.4.4,0,0,0,.1094.09.9662.9662,0,0,0,.13.07c.0332.0127.0937.0361.1807.0693a1.9907,1.9907,0,0,0,.1992.07q.07.0206.2607.07c.126.0332.2227.0566.29.0693l2.5195.6807a3.9324,3.9324,0,0,1,1.88,1.01,2.7385,2.7385,0,0,1,.56,1.87,2.585,2.585,0,0,1-1.02,2.39,7.0649,7.0649,0,0,1-3.5.63,26.7048,26.7048,0,0,1-4.42-.34l.18-1.92q.7206.041,3.42.04a9.52,9.52,0,0,0,2.0107-.13.58.58,0,0,0,.47-.61,1.6369,1.6369,0,0,0-.01-.18.4134.4134,0,0,0-.05-.15.5611.5611,0,0,0-.08-.1093.6015.6015,0,0,0-.13-.09c-.06-.0332-.1074-.06-.1406-.08a1.1743,1.1743,0,0,0-.1894-.08c-.0938-.0333-.167-.0567-.2207-.07s-.1465-.0361-.2793-.07A2.4049,2.4049,0,0,1,486.33,105.8374Z"/>
    <path d="M498.77,105.5571h-3.56a2.04,2.04,0,0,0,.6494,1.45,2.9467,2.9467,0,0,0,1.69.37,35.9214,35.9214,0,0,0,3.68-.22l.28,1.84a10.1362,10.1362,0,0,1-4.3.74,5.41,5.41,0,0,1-3.96-1.2,5.5118,5.5118,0,0,1-1.1807-3.96q0-2.9,1.15-4.0605a5.3223,5.3223,0,0,1,3.87-1.1592,5.8746,5.8746,0,0,1,3.56.85,3.118,3.118,0,0,1,1.12,2.59,2.7666,2.7666,0,0,1-.71,2.07A3.202,3.202,0,0,1,498.77,105.5571Zm-3.62-1.7793h2.8a.8557.8557,0,0,0,.7305-.2607,1.2811,1.2811,0,0,0,.1894-.76,1.14,1.14,0,0,0-.3594-.97,2.3225,2.3225,0,0,0-1.32-.27,2.1047,2.1047,0,0,0-1.56.45A2.96,2.96,0,0,0,495.15,103.7778Z"/>
    <path d="M515.11,99.3579l-.3,2.7392h-.8a10.8016,10.8016,0,0,0-3.02.6807v6.72h-2.96v-9.86h2.3l.2607,1.44a6.2166,6.2166,0,0,1,4-1.72Z"/>
    <path d="M522.67,105.5571h-3.56a2.0394,2.0394,0,0,0,.6495,1.45,2.9461,2.9461,0,0,0,1.69.37,35.9214,35.9214,0,0,0,3.68-.22l.28,1.84a10.137,10.137,0,0,1-4.3.74,5.41,5.41,0,0,1-3.96-1.2,5.5118,5.5118,0,0,1-1.1807-3.96q0-2.9,1.15-4.0605a5.3225,5.3225,0,0,1,3.87-1.1592,5.8746,5.8746,0,0,1,3.56.85,3.118,3.118,0,0,1,1.12,2.59,2.767,2.767,0,0,1-.71,2.07A3.2023,3.2023,0,0,1,522.67,105.5571Zm-3.62-1.7793h2.8a.8555.8555,0,0,0,.7305-.2607,1.28,1.28,0,0,0,.1894-.76,1.14,1.14,0,0,0-.3593-.97,2.3231,2.3231,0,0,0-1.32-.27,2.1047,2.1047,0,0,0-1.56.45A2.96,2.96,0,0,0,519.05,103.7778Z"/>
    <path d="M537.55,100.938l-1.2393.1591a3.6475,3.6475,0,0,1,.2393,1.42,2.766,2.766,0,0,1-1.0293,2.44,6.6123,6.6123,0,0,1-3.61.72,14.4357,14.4357,0,0,1-1.7-.1.7124.7124,0,0,0-.09.72.7325.7325,0,0,0,.67.46l3.58.42a3.5415,3.5415,0,0,1,2.19.88,2.8754,2.8754,0,0,1,.67,2.0606,2.691,2.691,0,0,1-1.13,2.54,8.7345,8.7345,0,0,1-4.0508.66,9.1209,9.1209,0,0,1-4.12-.63,2.4462,2.4462,0,0,1-1.0791-2.3106,2.0992,2.0992,0,0,1,.35-1.25,3.02,3.02,0,0,1,1.21-.89,1.986,1.986,0,0,1,.32-3.04,2.6431,2.6431,0,0,1-1.46-2.66,2.7751,2.7751,0,0,1,1.04-2.46,6.66,6.66,0,0,1,3.6192-.72,9.9608,9.9608,0,0,1,2.58.2793H537.69Zm-4.76,8.18-2.48-.26a1.472,1.472,0,0,0-.6406,1.14c0,.48.1465.7862.44.92a9.0443,9.0443,0,0,0,3.83-.01.8542.8542,0,0,0,.47-.87q0-.52-.3-.66A5.3731,5.3731,0,0,0,532.79,109.1177Zm-.88-5.32a2.8128,2.8128,0,0,0,1.49-.28,1.1265,1.1265,0,0,0,.41-1,1.1084,1.1084,0,0,0-.4-1,3.0019,3.0019,0,0,0-1.5-.26,3.0618,3.0618,0,0,0-1.51.26,1.0958,1.0958,0,0,0-.41,1,1.1239,1.1239,0,0,0,.41,1A2.86,2.86,0,0,0,531.91,103.7973Z"/>
    <path d="M540.05,95.2778h1.32a.76.76,0,0,1,.86.8594v1.08a.7607.7607,0,0,1-.86.86h-1.32a.76.76,0,0,1-.8594-.86v-1.08A.7594.7594,0,0,1,540.05,95.2778Zm2.1406,14.22h-2.94v-9.86h2.94Z"/>
    <path d="M549.0691,105.8374l-2.46-.66a3.5382,3.5382,0,0,1-1.88-1.09,3.1109,3.1109,0,0,1-.5195-1.91,2.4331,2.4331,0,0,1,.95-2.18,6.0852,6.0852,0,0,1,3.25-.64,28.7541,28.7541,0,0,1,4.56.38l-.2,1.8994q-2.52-.04-3.8-.04-.7,0-.97.0108a2.9938,2.9938,0,0,0-.54.0693c-.1807.04-.29.1035-.33.1905a.9693.9693,0,0,0-.0606.39,1.4148,1.4148,0,0,0,.0108.1807.3745.3745,0,0,0,.05.1494.9111.9111,0,0,0,.07.11.3985.3985,0,0,0,.1094.09.9662.9662,0,0,0,.13.07c.0333.0127.0938.0361.1807.0693a2.0085,2.0085,0,0,0,.1992.07q.07.0206.2608.07c.126.0332.2226.0566.29.0693l2.5195.6807a3.9319,3.9319,0,0,1,1.88,1.01,2.738,2.738,0,0,1,.5606,1.87,2.585,2.585,0,0,1-1.02,2.39,7.0649,7.0649,0,0,1-3.5.63,26.706,26.706,0,0,1-4.42-.34l.18-1.92q.7208.041,3.42.04a9.5205,9.5205,0,0,0,2.0107-.13.58.58,0,0,0,.47-.61,1.6637,1.6637,0,0,0-.01-.18.4172.4172,0,0,0-.05-.15.5694.5694,0,0,0-.08-.1093.6041.6041,0,0,0-.13-.09c-.0606-.0332-.1074-.06-.1406-.08a1.1724,1.1724,0,0,0-.1895-.08c-.0937-.0333-.167-.0567-.2207-.07s-.1465-.0361-.2793-.07A2.4049,2.4049,0,0,1,549.0691,105.8374Z"/>
    <path d="M559.0691,101.6177v4.66a1.027,1.027,0,0,0,.24.7793,1.2408,1.2408,0,0,0,.84.2207H561.41l.3193,2.06a8.4492,8.4492,0,0,1-2.7793.4,2.79,2.79,0,0,1-2.08-.75,2.8451,2.8451,0,0,1-.74-2.09v-5.28h-1.74v-1.88l1.74-.1006v-2.76h2.9394v2.76h2.74v1.98Z"/>
    <path d="M569.7293,105.5571h-3.56a2.04,2.04,0,0,0,.6494,1.45,2.9467,2.9467,0,0,0,1.69.37,35.918,35.918,0,0,0,3.68-.22l.28,1.84a10.1362,10.1362,0,0,1-4.3.74,5.41,5.41,0,0,1-3.96-1.2,5.5113,5.5113,0,0,1-1.1807-3.96q0-2.9,1.15-4.0605a5.3223,5.3223,0,0,1,3.87-1.1592,5.8748,5.8748,0,0,1,3.56.85,3.118,3.118,0,0,1,1.12,2.59,2.7666,2.7666,0,0,1-.71,2.07A3.202,3.202,0,0,1,569.7293,105.5571Zm-3.62-1.7793h2.8a.8553.8553,0,0,0,.73-.2607,1.28,1.28,0,0,0,.1895-.76,1.14,1.14,0,0,0-.3594-.97,2.3225,2.3225,0,0,0-1.32-.27,2.1049,2.1049,0,0,0-1.56.45A2.9606,2.9606,0,0,0,566.1092,103.7778Z"/>
    <path d="M581.7293,99.3579l-.3,2.7392h-.8a10.8008,10.8008,0,0,0-3.02.6807v6.72h-2.96v-9.86h2.3l.2608,1.44a6.2162,6.2162,0,0,1,4-1.72Z"/>
    <path d="M587.5291,105.8374l-2.46-.66a3.5386,3.5386,0,0,1-1.88-1.09,3.1116,3.1116,0,0,1-.5195-1.91,2.4331,2.4331,0,0,1,.95-2.18,6.0852,6.0852,0,0,1,3.25-.64,28.7544,28.7544,0,0,1,4.56.38l-.2,1.8994q-2.52-.04-3.8-.04-.7,0-.97.0108a2.996,2.996,0,0,0-.54.0693c-.1806.04-.29.1035-.33.1905a.9714.9714,0,0,0-.0605.39,1.4346,1.4346,0,0,0,.0107.1807.3776.3776,0,0,0,.05.1494.91.91,0,0,0,.07.11.3978.3978,0,0,0,.1093.09.9662.9662,0,0,0,.13.07c.0332.0127.0938.0361.1807.0693a1.9907,1.9907,0,0,0,.1992.07q.07.0206.2607.07c.126.0332.2227.0566.29.0693l2.5195.6807a3.9324,3.9324,0,0,1,1.88,1.01,2.7385,2.7385,0,0,1,.5605,1.87,2.585,2.585,0,0,1-1.02,2.39,7.0649,7.0649,0,0,1-3.5.63,26.7048,26.7048,0,0,1-4.42-.34l.18-1.92q.7207.041,3.42.04a9.521,9.521,0,0,0,2.0108-.13.58.58,0,0,0,.47-.61,1.6369,1.6369,0,0,0-.01-.18.4134.4134,0,0,0-.05-.15.5611.5611,0,0,0-.08-.1093.603.603,0,0,0-.13-.09c-.0606-.0332-.1075-.06-.1407-.08a1.1743,1.1743,0,0,0-.1894-.08c-.0938-.0333-.167-.0567-.2207-.07s-.1465-.0361-.2793-.07A2.4049,2.4049,0,0,1,587.5291,105.8374Z"/>
  </g>
  <g>
    <path d="M886.9676,42.3452H889.62a.9291.9291,0,0,1,1.0283,1.0283l.4873,11.4209h-2.5986l-.415-10.3017h-.3067l-1.876,7.7041a1.02,1.02,0,0,1-1.1191.8837h-1.8037a1.0191,1.0191,0,0,1-1.1191-.8837l-1.8946-7.7041h-.3066l-.36,10.3017h-2.5986l.4512-11.4209a.9394.9394,0,0,1,1.0283-1.0283h2.6523a1.0143,1.0143,0,0,1,1.083.8838l1.5147,6.207q.1451.5948.3252,1.75h.2344c.0117-.06.0566-.3066.1357-.74s.1406-.77.19-1.01l1.497-6.207A1.0492,1.0492,0,0,1,886.9676,42.3452Z"/>
    <path d="M893.48,47.8843l-.252-1.8047a26.1393,26.1393,0,0,1,4.6367-.4326,4.0041,4.0041,0,0,1,2.6524.73,3.2118,3.2118,0,0,1,.8476,2.5352v5.8818h-2.1113l-.27-1.3535a4.1478,4.1478,0,0,1-3.2832,1.57,3.1577,3.1577,0,0,1-2.0928-.6767,2.3178,2.3178,0,0,1-.8125-1.8858v-.9023a2.0312,2.0312,0,0,1,.7217-1.6592,3.0562,3.0562,0,0,1,2.0029-.5957h3.1758V48.895a1.1769,1.1769,0,0,0-.3164-.9209,1.9678,1.9678,0,0,0-1.1455-.2344Q895.7538,47.74,893.48,47.8843Zm1.9492,3.8613v.3428q0,.92,1.0459.92a3.6865,3.6865,0,0,0,2.22-.8662V50.897h-2.4A.7674.7674,0,0,0,895.43,51.7456Z"/>
    <path d="M904.2693,41.9663h1.19a.6859.6859,0,0,1,.7763.7754v.9746a.6862.6862,0,0,1-.7763.7764h-1.19a.6862.6862,0,0,1-.7763-.7764v-.9746A.6859.6859,0,0,1,904.2693,41.9663ZM906.2,54.7944h-2.6524V45.9H906.2Z"/>
    <path d="M910.62,45.9l.1983,1.3164a6.0729,6.0729,0,0,1,3.8076-1.5693,2.524,2.524,0,0,1,1.8486.6318,2.472,2.472,0,0,1,.6406,1.84v6.6758h-2.6523V48.9487a1.31,1.31,0,0,0-.19-.8213.8455.8455,0,0,0-.6757-.2256,6.2417,6.2417,0,0,0-2.4727.8125v6.08h-2.67V45.9Z"/>
    <path d="M925.3064,45.9l.1807,1.2988a5.0706,5.0706,0,0,1,3.3916-1.5517,2.1422,2.1422,0,0,1,2.292,1.4433,4.7837,4.7837,0,0,1,3.2471-1.4433,2.2139,2.2139,0,0,1,2.4716,2.4716v6.6758h-2.6523V48.9487a1.2686,1.2686,0,0,0-.1982-.8115.9375.9375,0,0,0-.7393-.2354,2.1686,2.1686,0,0,0-.83.1631,8.8283,8.8283,0,0,0-1.1553.6309v6.0986h-2.5615V48.9487a1.1584,1.1584,0,0,0-.2256-.8115.9791.9791,0,0,0-.73-.2354,4.2349,4.2349,0,0,0-1.9668.7764v6.1162h-2.6524V45.9Z"/>
    <path d="M944.6834,51.24h-3.2109a1.844,1.844,0,0,0,.5859,1.3086,2.6575,2.6575,0,0,0,1.5244.334,32.2635,32.2635,0,0,0,3.32-.1992l.252,1.66a9.1324,9.1324,0,0,1-3.8789.668,4.8811,4.8811,0,0,1-3.5723-1.083,4.972,4.972,0,0,1-1.0645-3.5723,5.1351,5.1351,0,0,1,1.0372-3.6621,4.7953,4.7953,0,0,1,3.4912-1.0468,5.3035,5.3035,0,0,1,3.2119.7666,2.8158,2.8158,0,0,1,1.0107,2.3369,2.4931,2.4931,0,0,1-.6406,1.8672A2.8894,2.8894,0,0,1,944.6834,51.24Zm-3.2656-1.6054h2.5263a.7722.7722,0,0,0,.6582-.2344,1.1525,1.1525,0,0,0,.1719-.6856,1.0291,1.0291,0,0,0-.3252-.875,2.0844,2.0844,0,0,0-1.19-.2441,1.899,1.899,0,0,0-1.4072.4062A2.67,2.67,0,0,0,941.4178,49.6343Z"/>
    <path d="M951.2508,45.9l.1806,1.2988a5.0708,5.0708,0,0,1,3.3916-1.5517,2.1421,2.1421,0,0,1,2.292,1.4433,4.7837,4.7837,0,0,1,3.2471-1.4433,2.214,2.214,0,0,1,2.4717,2.4716v6.6758h-2.6524V48.9487a1.2686,1.2686,0,0,0-.1982-.8115.9374.9374,0,0,0-.7393-.2354,2.1681,2.1681,0,0,0-.83.1631,8.8154,8.8154,0,0,0-1.1553.6309v6.0986h-2.5615V48.9487a1.1584,1.1584,0,0,0-.2256-.8115.9794.9794,0,0,0-.7305-.2354,4.2353,4.2353,0,0,0-1.9668.7764v6.1162h-2.6523V45.9Z"/>
    <path d="M969.1668,45.647a4.7816,4.7816,0,0,1,3.5273,1.0732,5.1514,5.1514,0,0,1,1.0371,3.6357,5.0779,5.0779,0,0,1-1.0371,3.6172,6.4516,6.4516,0,0,1-7.0732,0,5.0779,5.0779,0,0,1-1.0371-3.6172,5.1472,5.1472,0,0,1,1.0371-3.6445A4.8326,4.8326,0,0,1,969.1668,45.647Zm0,2.0029a1.6,1.6,0,0,0-1.4258.541,4.3531,4.3531,0,0,0-.36,2.165,4.248,4.248,0,0,0,.36,2.1289,1.5993,1.5993,0,0,0,1.4258.5411,1.58,1.58,0,0,0,1.3984-.5411,4.16,4.16,0,0,0,.3692-2.1289,4.3609,4.3609,0,0,0-.36-2.1562A1.5679,1.5679,0,0,0,969.1668,47.65Z"/>
    <path d="M981.94,45.647l-.27,2.4716h-.7217a9.7615,9.7615,0,0,0-2.7246.6133v6.0625h-2.67V45.9h2.0752l.2344,1.2988a5.61,5.61,0,0,1,3.6084-1.5517Z"/>
    <path d="M992.116,45.9l-3.1572,9.02a7.1644,7.1644,0,0,1-.6221,1.3359,6.0972,6.0972,0,0,1-.9473,1.1817,3.5223,3.5223,0,0,1-1.4345.8388,4.4847,4.4847,0,0,1-1.9033.1446l-.2168-1.57a4.9458,4.9458,0,0,0,1.6962-.7491,3.054,3.054,0,0,0,.9561-1.2353l.0361-.0723h-.5048a.8316.8316,0,0,1-.8663-.6494L982.2469,45.9h2.8506l1.66,5.7549q.1626.6327.27,1.3349h.2354c.0351-.1435.0957-.3691.18-.6758s.1445-.5263.1806-.6591L989.2654,45.9Z"/>
    <path d="M913.5252,62.1919l.3076,1.1552q-2.96,1.3536-2.959,7.4512,0,6.0088,2.959,7.47l-.3076,1.1543a6.87,6.87,0,0,1-3.9688-2.9492,10.8781,10.8781,0,0,1-1.2627-5.6562,10.9686,10.9686,0,0,1,1.2627-5.6836A6.7833,6.7833,0,0,1,913.5252,62.1919Z"/>
    <path d="M925.0721,76.4458h-2.9053l-.9375-3.8067a1.5836,1.5836,0,0,0-.4785-.8212,1.3993,1.3993,0,0,0-.8574-.2256l-1.93-.0176v4.8711h-2.7071V63.9966q1.6788-.1626,4.7451-.1621a6.0308,6.0308,0,0,1,3.5547.7939,3.4251,3.4251,0,0,1,1.0469,2.8867,3.6531,3.6531,0,0,1-.5508,2.1465,2.5,2.5,0,0,1-1.831.9385v.09a2.2431,2.2431,0,0,1,1.7676,1.877Zm-7.1084-6.9824h1.9843a2.2028,2.2028,0,0,0,1.48-.37,2.6725,2.6725,0,0,0,.0088-2.7871,2.2448,2.2448,0,0,0-1.4883-.3613l-1.9843.0186Z"/>
    <path d="M933.6062,73.18H929.33l-.9014,3.2656h-2.8154l3.5908-11.7276a.86.86,0,0,1,.3428-.5234,1.0141,1.0141,0,0,1,.6133-.1982h2.5986a.8841.8841,0,0,1,.956.7216l3.5909,11.7276h-2.7969Zm-.5957-2.129-1.0459-3.8066q-.2168-.9024-.2529-1.1728h-.4873q-.0351.18-.126.5771t-.1445.5957l-1.0459,3.8066Z"/>
    <path d="M948.5818,63.9966h2.6524a.9291.9291,0,0,1,1.0283,1.0283l.4873,11.4209h-2.5986l-.4151-10.3018H949.43l-1.876,7.7041a1.02,1.02,0,0,1-1.1191.8838h-1.8037a1.0192,1.0192,0,0,1-1.1192-.8838L941.617,66.144H941.31l-.36,10.3018h-2.5986l.4511-11.4209a.94.94,0,0,1,1.0284-1.0283h2.6523a1.0143,1.0143,0,0,1,1.083.8838l1.5147,6.207q.1449.5948.3251,1.75h.2344c.0117-.0606.0567-.3067.1358-.74s.1406-.7695.1894-1.01l1.4971-6.207A1.0491,1.0491,0,0,1,948.5818,63.9966Z"/>
    <path d="M953.742,63.3471l.3066-1.1552a6.7856,6.7856,0,0,1,3.97,2.9414,10.97,10.97,0,0,1,1.2626,5.6836,10.8791,10.8791,0,0,1-1.2626,5.6562,6.8722,6.8722,0,0,1-3.97,2.9492l-.3066-1.1543q2.9589-1.4619,2.959-7.47Q956.701,64.7,953.742,63.3471Z"/>
  </g>
  <g>
    <path d="M465.3113,174.5h.9737a1.4193,1.4193,0,0,1,.9863.2685,1.33,1.33,0,0,1,.28.9737v1.1689a1.0529,1.0529,0,0,1-1.2666,1.2666h-.9737a1.0529,1.0529,0,0,1-1.2666-1.2666v-1.1689a1.3257,1.3257,0,0,1,.28-.9737A1.4176,1.4176,0,0,1,465.3113,174.5Z"/>
    <path d="M471.3025,174.5h.9737a1.4193,1.4193,0,0,1,.9863.2685,1.33,1.33,0,0,1,.28.9737v1.1689a1.0529,1.0529,0,0,1-1.2666,1.2666h-.9737a1.0529,1.0529,0,0,1-1.2666-1.2666v-1.1689a1.3257,1.3257,0,0,1,.28-.9737A1.4178,1.4178,0,0,1,471.3025,174.5Z"/>
    <path d="M477.2937,174.5h.9737a1.4193,1.4193,0,0,1,.9863.2685,1.33,1.33,0,0,1,.28.9737v1.1689a1.0529,1.0529,0,0,1-1.2666,1.2666h-.9737a1.0529,1.0529,0,0,1-1.2666-1.2666v-1.1689a1.3257,1.3257,0,0,1,.28-.9737A1.4178,1.4178,0,0,1,477.2937,174.5Z"/>
  </g>
  <polygon points="978.201 480.048 987.085 479.96 982.567 472.311 978.05 464.661 973.684 472.398 969.318 480.135 978.201 480.048"/>
  <polygon points="978.201 507.748 969.318 507.836 973.835 515.486 978.353 523.135 982.719 515.398 987.085 507.661 978.201 507.748"/>
  <polygon points="628.201 478.048 637.084 477.96 632.567 470.311 628.049 462.661 623.683 470.398 619.317 478.135 628.201 478.048"/>
  <polygon points="628.201 507.748 619.317 507.836 623.835 515.486 628.352 523.135 632.718 515.398 637.084 507.661 628.201 507.748"/>
  <polygon points="882.201 494.048 891.085 493.96 886.567 486.311 882.05 478.661 877.684 486.398 873.318 494.135 882.201 494.048"/>
  <polygon points="852.201 494.048 861.085 493.96 856.567 486.311 852.05 478.661 847.684 486.398 843.318 494.135 852.201 494.048"/>
  <polygon points="852.201 592.749 843.318 592.836 847.835 600.486 852.352 608.135 856.719 600.398 861.085 592.661 852.201 592.749"/>
  <polygon points="312.201 592.749 303.317 592.836 307.834 600.486 312.352 608.135 316.718 600.398 321.084 592.661 312.201 592.749"/>
  <polygon points="352.201 452.048 361.084 451.96 356.567 444.311 352.049 436.661 347.683 444.398 343.317 452.135 352.201 452.048"/>
  <polygon points="352.201 550.748 343.317 550.836 347.835 558.486 352.352 566.135 356.718 558.398 361.084 550.661 352.201 550.748"/>
  <polyline class="c" points="215.56 150.945 215.56 196.523 243.964 196.523 243.964 280.597"/>
  <polyline class="c" points="350.964 280.597 349.636 197.844 731.449 197.844 731.449 148.303"/>
  <polyline class="f" points="626.752 251.367 626.752 283.074 400.879 282.716"/>
  <line class="c" x1="626.7522" y1="441.0737" x2="400.8792" y2="440.7159"/>
  <polyline class="f" points="707.752 331.074 707.752 295.367 400.879 295.725"/>
  <polyline class="f" points="644.752 344.074 644.752 308.367 337.879 308.725"/>
  <line class="f" x1="676.7523" y1="378.3673" x2="400.8792" y2="378.7251"/>
  <polyline class="f" points="676.752 380.367 676.752 412.074 400.879 411.716"/>
  <rect class="e" x="188.4412" y="275.3672" width="222.3889" height="182.6186" rx="10.8042"/>
  <rect class="e" x="188.4412" y="125.6517" width="568.5138" height="34.6788"/>
  <line class="g" x1="243.964" y1="125.6517" x2="243.964" y2="160.3306"/>
  <line class="g" x1="300.9641" y1="125.6517" x2="300.9641" y2="160.3306"/>
  <line class="g" x1="357.9641" y1="125.6517" x2="357.9641" y2="160.3306"/>
  <line class="g" x1="415.9642" y1="125.6517" x2="415.9642" y2="160.3306"/>
  <line class="g" x1="472.9642" y1="125.6517" x2="472.9642" y2="160.3306"/>
  <line class="g" x1="529.9643" y1="125.6517" x2="529.9643" y2="160.3306"/>
  <line class="g" x1="587.9644" y1="125.6517" x2="587.9644" y2="160.3306"/>
  <line class="g" x1="645.9644" y1="125.6517" x2="645.9644" y2="160.3306"/>
  <line class="g" x1="701.9645" y1="125.6517" x2="701.9645" y2="160.3306"/>
  <rect class="d" x="468.5689" y="216.3397" width="146.4431" height="36.3302"/>
  <rect class="e" x="615.569" y="216.3397" width="141.386" height="36.3302"/>
  <g>
    <path d="M489.6492,238.6186h-4.74l-1,3.62h-3.12l3.98-13a.95.95,0,0,1,.38-.58,1.1223,1.1223,0,0,1,.68-.22H488.71a.9808.9808,0,0,1,1.06.8l3.9805,13h-3.1006Zm-.66-2.36-1.16-4.22q-.2388-.9992-.2793-1.3h-.54c-.0274.1338-.0733.3467-.1407.64s-.1191.5137-.1591.66l-1.16,4.22Z"/>
    <path d="M503.0691,239.8989l.26,1.92a9.6283,9.6283,0,0,1-3.8193.66q-2.72,0-3.83-1.17t-1.11-4.0108q0-2.8593,1.12-4.0293t3.86-1.17a9.0582,9.0582,0,0,1,3.64.62l-.32,1.84q-2.1591-.0411-2.8193-.04a2.42,2.42,0,0,0-1.87.58,5.0006,5.0006,0,0,0,0,4.3994,2.42,2.42,0,0,0,1.87.58A21.9881,21.9881,0,0,0,503.0691,239.8989Z"/>
    <path d="M513.0691,239.8989l.26,1.92a9.6283,9.6283,0,0,1-3.8193.66q-2.72,0-3.83-1.17t-1.11-4.0108q0-2.8593,1.12-4.0293t3.86-1.17a9.0582,9.0582,0,0,1,3.64.62l-.32,1.84q-2.1591-.0411-2.8193-.04a2.42,2.42,0,0,0-1.87.58,5.0006,5.0006,0,0,0,0,4.3994,2.42,2.42,0,0,0,1.87.58A21.9881,21.9881,0,0,0,513.0691,239.8989Z"/>
    <path d="M524.4891,232.3784v9.86h-2.34l-.2207-1.36a6.557,6.557,0,0,1-4.0791,1.62,2.44,2.44,0,0,1-2.78-2.74v-7.38h2.96v6.4805a1.2582,1.2582,0,0,0,.22.8994,1.11,1.11,0,0,0,.84.2607,6.0385,6.0385,0,0,0,2.46-.82v-6.82Z"/>
    <path d="M529.2889,232.3784l.2,1.44a5.62,5.62,0,0,1,3.76-1.72,2.374,2.374,0,0,1,2.54,1.6,5.3039,5.3039,0,0,1,3.6-1.6,2.4539,2.4539,0,0,1,2.74,2.7393v7.4h-2.9395v-6.48a1.41,1.41,0,0,0-.2207-.8994,1.04,1.04,0,0,0-.8193-.26,2.41,2.41,0,0,0-.9209.18,9.72,9.72,0,0,0-1.2793.7v6.76h-2.84v-6.48a1.2879,1.2879,0,0,0-.25-.8994,1.0884,1.0884,0,0,0-.8106-.26,4.6962,4.6962,0,0,0-2.18.8594v6.78h-2.94v-9.86Z"/>
    <path d="M553.8484,232.3784v9.86h-2.34l-.2207-1.36a6.557,6.557,0,0,1-4.0791,1.62,2.44,2.44,0,0,1-2.78-2.74v-7.38h2.96v6.4805a1.2577,1.2577,0,0,0,.22.8994,1.11,1.11,0,0,0,.84.2607,6.0384,6.0384,0,0,0,2.46-.82v-6.82Z"/>
    <path d="M559.2478,228.2387v10.78q0,1,1.12,1h.8l.3408,2.06a5.2956,5.2956,0,0,1-2.36.4,2.93,2.93,0,0,1-2.08-.71,2.6161,2.6161,0,0,1-.76-2.0107v-11.52Z"/>
    <path d="M563.0887,234.5786l-.28-2a28.8961,28.8961,0,0,1,5.14-.48,4.44,4.44,0,0,1,2.9405.81,3.5591,3.5591,0,0,1,.9394,2.81v6.5195h-2.34l-.3-1.5a4.6007,4.6007,0,0,1-3.64,1.74,3.5015,3.5015,0,0,1-2.32-.75,2.5707,2.5707,0,0,1-.9-2.09v-1a2.2555,2.2555,0,0,1,.8-1.8408,3.3951,3.3951,0,0,1,2.2207-.6592h3.52v-.44a1.2989,1.2989,0,0,0-.35-1.0195,2.1774,2.1774,0,0,0-1.2706-.2608Q565.6087,234.4184,563.0887,234.5786Zm2.1591,4.28v.38q0,1.02,1.16,1.02a4.0794,4.0794,0,0,0,2.46-.96v-1.38h-2.66A.8514.8514,0,0,0,565.2478,238.8589Z"/>
    <path d="M578.0076,234.3589v4.66a1.0274,1.0274,0,0,0,.24.7793,1.2412,1.2412,0,0,0,.84.2207h1.2607l.3194,2.06a8.45,8.45,0,0,1-2.7793.4,2.79,2.79,0,0,1-2.08-.75,2.8447,2.8447,0,0,1-.74-2.09v-5.28h-1.74v-1.88l1.74-.1006v-2.76h2.9394v2.76h2.74v1.9805Z"/>
    <path d="M587.0476,232.0991a5.2972,5.2972,0,0,1,3.91,1.19q1.15,1.1909,1.15,4.03t-1.15,4.01a5.3536,5.3536,0,0,1-3.91,1.17q-2.78,0-3.93-1.17t-1.15-4.01q0-2.8593,1.15-4.04Q584.2679,232.1,587.0476,232.0991Zm0,2.22a1.7752,1.7752,0,0,0-1.58.6,4.8243,4.8243,0,0,0-.3994,2.4,4.7088,4.7088,0,0,0,.3994,2.36,1.7752,1.7752,0,0,0,1.58.6,1.7538,1.7538,0,0,0,1.55-.6,4.6064,4.6064,0,0,0,.41-2.36,4.8255,4.8255,0,0,0-.3994-2.39A1.7363,1.7363,0,0,0,587.0476,234.3188Z"/>
    <path d="M601.2078,232.0991l-.3,2.7393h-.8a10.8,10.8,0,0,0-3.02.6806v6.72h-2.96v-9.86h2.3l.2608,1.44a6.2166,6.2166,0,0,1,4-1.72Z"/>
  </g>
  <rect class="d" x="468.5689" y="422.3399" width="126.7655" height="36.3302"/>
  <rect class="e" x="595.3344" y="422.3399" width="161.6206" height="36.3302" transform="translate(1352.2894 881.01) rotate(180)"/>
  <g>
    <path d="M491.4822,434.44h2.94a1.0291,1.0291,0,0,1,1.14,1.14l.54,12.66h-2.88l-.46-11.42h-.34l-2.08,8.54a1.1289,1.1289,0,0,1-1.24.9795h-2a1.128,1.128,0,0,1-1.2393-.9795l-2.1006-8.54h-.34l-.4,11.42h-2.88l.5-12.66a1.0414,1.0414,0,0,1,1.1406-1.14h2.94a1.1235,1.1235,0,0,1,1.2.9795l1.68,6.88q.1611.6606.36,1.94h.26q.02-.1.15-.82t.21-1.12l1.66-6.88A1.1627,1.1627,0,0,1,491.4822,434.44Z"/>
    <path d="M506.2615,441.04v.08a2.8821,2.8821,0,0,1,2.2,1.05,4.4448,4.4448,0,0,1,.66,2.63,3.2826,3.2826,0,0,1-1.0606,2.8408,6.437,6.437,0,0,1-3.62.76q-3.8394,0-5.8193-.16v-13.8q1.78-.16,5.18-.16a6.9984,6.9984,0,0,1,3.82.75,3.2813,3.2813,0,0,1,1.06,2.85,3.79,3.79,0,0,1-.57,2.2705A2.4509,2.4509,0,0,1,506.2615,441.04Zm-4.66-.96h2.22a2.3918,2.3918,0,0,0,1.53-.3594,1.8716,1.8716,0,0,0,.41-1.4209,1.6886,1.6886,0,0,0-.44-1.38,2.8747,2.8747,0,0,0-1.6592-.34l-2.06-.02Zm0,6.02h2.32a2.7751,2.7751,0,0,0,1.7-.37,1.9528,1.9528,0,0,0,.4394-1.51,2.2866,2.2866,0,0,0-.46-1.6709,2.7033,2.7033,0,0,0-1.76-.4492h-2.24Z"/>
    <path d="M522.242,448.24h-3.2207l-1.04-4.22a1.7465,1.7465,0,0,0-.5293-.91,1.5517,1.5517,0,0,0-.95-.25l-2.14-.0205v5.4h-3v-13.8q1.8589-.18,5.26-.1806a6.6825,6.6825,0,0,1,3.9394.8808,3.795,3.795,0,0,1,1.16,3.1992,4.06,4.06,0,0,1-.6094,2.3809,2.7708,2.7708,0,0,1-2.03,1.0391v.1005a2.4875,2.4875,0,0,1,1.96,2.08Zm-7.88-7.74h2.1992a2.4457,2.4457,0,0,0,1.6406-.41,2.9633,2.9633,0,0,0,.01-3.09,2.4887,2.4887,0,0,0-1.65-.3994l-2.1992.0195Z"/>
    <path d="M525.5613,449.68h-2.34l7.8594-15.24h2.34Z"/>
    <path d="M546.3016,434.44h2.9394a1.0292,1.0292,0,0,1,1.14,1.14l.54,12.66h-2.88l-.46-11.42h-.34l-2.08,8.54a1.1289,1.1289,0,0,1-1.24.9795h-2a1.128,1.128,0,0,1-1.2393-.9795l-2.1005-8.54h-.34l-.4,11.42h-2.88l.5-12.66a1.0415,1.0415,0,0,1,1.1407-1.14h2.9394a1.1235,1.1235,0,0,1,1.2.9795l1.68,6.88q.1611.6606.36,1.94h.26q.0205-.1.15-.82t.21-1.12l1.66-6.88A1.1628,1.1628,0,0,1,546.3016,434.44Z"/>
    <path d="M553.4412,448.24v-13.8q2.8389-.18,5.3594-.1806,3.3,0,4.59,1.5205t1.29,5.5595q0,4.04-1.29,5.5606t-4.59,1.5195Q556.2811,448.4194,553.4412,448.24Zm3.04-11.58V446c.2266,0,.5957.0039,1.1094.01q.7705.0117,1.21.0107a2.231,2.231,0,0,0,2.11-.9805,12.32,12.32,0,0,0,0-7.41,2.2245,2.2245,0,0,0-2.11-.9893Z"/>
    <path d="M577.9207,448.24H574.7l-1.04-4.22a1.7478,1.7478,0,0,0-.5293-.91,1.5519,1.5519,0,0,0-.95-.25l-2.14-.0205v5.4h-3v-13.8q1.8589-.18,5.26-.1806a6.6825,6.6825,0,0,1,3.9394.8808,3.795,3.795,0,0,1,1.16,3.1992,4.06,4.06,0,0,1-.6094,2.3809,2.7708,2.7708,0,0,1-2.03,1.0391v.1005a2.4875,2.4875,0,0,1,1.96,2.08Zm-7.88-7.74H572.24a2.4462,2.4462,0,0,0,1.6407-.41,2.9636,2.9636,0,0,0,.01-3.09,2.4887,2.4887,0,0,0-1.65-.3994l-2.1992.0195Z"/>
  </g>
  <g>
    <path d="M251.3709,297.8882l.26,2.26a15.0576,15.0576,0,0,1-4.42.5606q-3.2007,0-4.5-1.6006-1.3008-1.6-1.3-5.54t1.3-5.54q1.2993-1.6,4.5-1.6a16.9448,16.9448,0,0,1,4.14.46l-.26,2.28q-1.62-.1-3.88-.1005a2.1634,2.1634,0,0,0-2.05.95,11.7175,11.7175,0,0,0,0,7.1006,2.163,2.163,0,0,0,2.05.9493A35.0973,35.0973,0,0,0,251.3709,297.8882Z"/>
    <path d="M258.07,290.3286a5.2976,5.2976,0,0,1,3.91,1.1894q1.15,1.191,1.15,4.03t-1.15,4.01a5.3536,5.3536,0,0,1-3.91,1.17q-2.78,0-3.93-1.17t-1.15-4.01q0-2.8593,1.15-4.04T258.07,290.3286Zm0,2.22a1.7754,1.7754,0,0,0-1.58.6,4.8243,4.8243,0,0,0-.3994,2.4,4.7091,4.7091,0,0,0,.3994,2.36,1.7754,1.7754,0,0,0,1.58.6,1.7535,1.7535,0,0,0,1.55-.6,4.6053,4.6053,0,0,0,.41-2.36,4.8255,4.8255,0,0,0-.3994-2.39A1.7362,1.7362,0,0,0,258.07,292.5483Z"/>
    <path d="M267.5506,290.6079l.22,1.46a6.7325,6.7325,0,0,1,4.22-1.7393,2.8046,2.8046,0,0,1,2.0508.6992,2.746,2.746,0,0,1,.71,2.04v7.4H271.81v-6.48a1.4584,1.4584,0,0,0-.21-.9092.9375.9375,0,0,0-.75-.25,6.9143,6.9143,0,0,0-2.74.8994v6.74h-2.96v-9.86Z"/>
    <path d="M280.97,292.5884v4.66a1.027,1.027,0,0,0,.24.7793,1.2408,1.2408,0,0,0,.84.2207H283.31l.3194,2.06a8.4492,8.4492,0,0,1-2.7793.4,2.79,2.79,0,0,1-2.08-.75,2.8451,2.8451,0,0,1-.74-2.09v-5.28h-1.74v-1.88l1.74-.1006v-2.76H280.97v2.76h2.74v1.9805Z"/>
    <path d="M292.43,290.3286l-.3,2.7393h-.8a10.8,10.8,0,0,0-3.0205.6806v6.72h-2.96v-9.86h2.3l.2608,1.44a6.2162,6.2162,0,0,1,4-1.72Z"/>
    <path d="M298.37,290.3286a5.2976,5.2976,0,0,1,3.91,1.1894q1.15,1.191,1.15,4.03t-1.15,4.01a5.3536,5.3536,0,0,1-3.91,1.17q-2.78,0-3.93-1.17t-1.15-4.01q0-2.8593,1.15-4.04T298.37,290.3286Zm0,2.22a1.7754,1.7754,0,0,0-1.58.6,4.8243,4.8243,0,0,0-.3994,2.4,4.7091,4.7091,0,0,0,.3994,2.36,1.7754,1.7754,0,0,0,1.58.6,1.7535,1.7535,0,0,0,1.55-.6,4.6053,4.6053,0,0,0,.41-2.36,4.8255,4.8255,0,0,0-.3994-2.39A1.736,1.736,0,0,0,298.37,292.5483Z"/>
    <path d="M308.41,286.4682v10.78q0,1.0005,1.12,1h.8l.3408,2.06a5.2953,5.2953,0,0,1-2.36.4,2.93,2.93,0,0,1-2.08-.71,2.6161,2.6161,0,0,1-.76-2.0107v-11.52Z"/>
    <path d="M325.27,290.6079v9.86h-2.34l-.2207-1.36a6.5572,6.5572,0,0,1-4.0791,1.62,2.44,2.44,0,0,1-2.78-2.74v-7.38h2.96v6.4805a1.2582,1.2582,0,0,0,.22.8994,1.1094,1.1094,0,0,0,.84.2607,6.0384,6.0384,0,0,0,2.46-.82v-6.82Z"/>
    <path d="M330.11,290.6079l.22,1.46a6.7322,6.7322,0,0,1,4.22-1.7393,2.8048,2.8048,0,0,1,2.0508.6992,2.7464,2.7464,0,0,1,.71,2.04v7.4h-2.94v-6.48a1.4584,1.4584,0,0,0-.21-.9092.9375.9375,0,0,0-.75-.25,6.9143,6.9143,0,0,0-2.74.8994v6.74h-2.96v-9.86Z"/>
    <path d="M340.5691,286.2485h1.32a.76.76,0,0,1,.86.8594v1.08a.7607.7607,0,0,1-.86.86h-1.32a.76.76,0,0,1-.8593-.86v-1.08A.7593.7593,0,0,1,340.5691,286.2485Zm2.1407,14.22h-2.94v-9.86h2.94Z"/>
    <path d="M349.0486,292.5884v4.66a1.027,1.027,0,0,0,.24.7793,1.2408,1.2408,0,0,0,.84.2207h1.2607l.3194,2.06a8.4492,8.4492,0,0,1-2.7793.4,2.79,2.79,0,0,1-2.08-.75,2.8451,2.8451,0,0,1-.74-2.09v-5.28h-1.74v-1.88l1.74-.1006v-2.76h2.9394v2.76h2.74v1.9805Z"/>
  </g>
  <rect class="d" x="205.0537" y="313.3423" width="55.4861" height="27.0825"/>
  <rect class="h" x="260.5398" y="313.3423" width="131.4733" height="27.0825" transform="translate(652.5529 653.767) rotate(180)"/>
  <g>
    <path d="M222.99,332.65V322.3628q1.3859-.1349,3.9063-.1348a4.6084,4.6084,0,0,1,2.959.7012,3.46,3.46,0,0,1,.7978,2.6533,3.6245,3.6245,0,0,1-.7529,2.6621,3.9682,3.9682,0,0,1-2.7061.708,15.6886,15.6886,0,0,1-1.9384-.1191V332.65Zm2.2657-5.4414h1.5957a1.7176,1.7176,0,0,0,1.2-.3438,2.7248,2.7248,0,0,0,0-2.5635,1.6765,1.6765,0,0,0-1.2-.3281l-1.5957.0147Z"/>
    <path d="M239.2254,330.727l.1943,1.6846a11.22,11.22,0,0,1-3.2949.417,4.1026,4.1026,0,0,1-3.3545-1.1924,9.2879,9.2879,0,0,1,0-8.26,4.1026,4.1026,0,0,1,3.3545-1.1923,12.6337,12.6337,0,0,1,3.0859.3427l-.1933,1.6993q-1.2086-.0748-2.8926-.0743a1.6141,1.6141,0,0,0-1.5283.708,8.7424,8.7424,0,0,0,0,5.293,1.6139,1.6139,0,0,0,1.5283.708A26.286,26.286,0,0,0,239.2254,330.727Z"/>
  </g>
  <rect class="d" x="205.0537" y="346.3423" width="55.4861" height="27.0825"/>
  <rect class="h" x="260.5398" y="346.3423" width="131.4733" height="27.0825" transform="translate(652.5529 719.7671) rotate(180)"/>
  <g>
    <path d="M226.6053,361.7583l-2.0723-.7305a2.83,2.83,0,0,1-2.1328-3.0117,2.6058,2.6058,0,0,1,.8281-2.2734,5.3775,5.3775,0,0,1,2.9141-.5743,12.4734,12.4734,0,0,1,3.3847.4034l-.1494,1.55q-1.2963-.0439-3.22-.044a2.9686,2.9686,0,0,0-1.1934.1563q-.2973.1567-.2978.7822a1.0017,1.0017,0,0,0,.2236.7305,2.2617,2.2617,0,0,0,.85.4326l1.9532.6709a3.2545,3.2545,0,0,1,1.6845,1.1406,3.2886,3.2886,0,0,1,.4922,1.8857,2.7682,2.7682,0,0,1-.8349,2.3487,5.2443,5.2443,0,0,1-2.9815.6181,16.684,16.684,0,0,1-3.5332-.3867l.1338-1.6406q3.1758.0747,3.3994.0752a2.5445,2.5445,0,0,0,1.2149-.1943.8871.8871,0,0,0,.3056-.8047,1.0453,1.0453,0,0,0-.209-.7383A1.8809,1.8809,0,0,0,226.6053,361.7583Z"/>
    <path d="M239.5906,365.65h-2.4l-.7754-3.1455a1.3037,1.3037,0,0,0-.3955-.6787,1.1536,1.1536,0,0,0-.708-.1866l-1.5947-.0146V365.65H231.48V355.3628q1.3857-.1349,3.9209-.1348a4.9809,4.9809,0,0,1,2.9365.6563,2.8283,2.8283,0,0,1,.8652,2.3857,3.0209,3.0209,0,0,1-.4551,1.7744,2.0681,2.0681,0,0,1-1.5127.7754v.0742a1.8527,1.8527,0,0,1,1.461,1.5508Zm-5.874-5.7695h1.64a1.8266,1.8266,0,0,0,1.2227-.3057,2.2084,2.2084,0,0,0,.0078-2.3037,1.8579,1.8579,0,0,0-1.2305-.2979l-1.64.0147Z"/>
  </g>
  <rect class="d" x="205.0537" y="379.3423" width="55.4861" height="27.0825"/>
  <rect class="h" x="260.5398" y="379.3423" width="131.4733" height="27.0825" transform="translate(652.5529 785.7672) rotate(180)"/>
  <g>
    <path d="M227.6785,396.727l.1943,1.6846a11.22,11.22,0,0,1-3.2949.417,4.1026,4.1026,0,0,1-3.3545-1.1924,9.2879,9.2879,0,0,1,0-8.26,4.1026,4.1026,0,0,1,3.3545-1.1923,12.6345,12.6345,0,0,1,3.086.3427l-.1934,1.6993q-1.2085-.0748-2.8926-.0743a1.6141,1.6141,0,0,0-1.5283.708,8.7424,8.7424,0,0,0,0,5.293,1.6139,1.6139,0,0,0,1.5283.708A26.2836,26.2836,0,0,0,227.6785,396.727Z"/>
    <path d="M231.5994,398.65h-2.2656V388.3628h2.2656Z"/>
    <path d="M241.7976,398.65h-2.4l-.7754-3.1455a1.3044,1.3044,0,0,0-.3955-.6787,1.1538,1.1538,0,0,0-.708-.1866l-1.5948-.0146V398.65h-2.2363V388.3628q1.3857-.1349,3.9209-.1348a4.9807,4.9807,0,0,1,2.9365.6563,2.828,2.828,0,0,1,.8653,2.3857,3.0217,3.0217,0,0,1-.4551,1.7744,2.0683,2.0683,0,0,1-1.5127.7754v.0742a1.8526,1.8526,0,0,1,1.4609,1.5508Zm-5.874-5.7695h1.64a1.8262,1.8262,0,0,0,1.2226-.3057,2.2078,2.2078,0,0,0,.0078-2.3037,1.8576,1.8576,0,0,0-1.23-.2979l-1.64.0147Z"/>
  </g>
  <polygon points="606.419 329.445 662.461 329.445 676.752 350.319 688.382 329.445 747.086 329.445 712.954 397.024 643.083 397.024 606.419 329.445"/>
  <g>
    <path class="e" d="M667.1111,376.96h-4.74l-1,3.62h-3.12l3.98-13a.95.95,0,0,1,.38-.58,1.1223,1.1223,0,0,1,.68-.22h2.8809a.9808.9808,0,0,1,1.0595.8l3.9805,13h-3.1006Zm-.66-2.36-1.16-4.22q-.2388-.9992-.2793-1.3h-.54c-.0274.1338-.0733.3467-.1406.64s-.1192.5137-.1592.66l-1.16,4.22Z"/>
    <path class="e" d="M675.6316,366.7807v10.3a1.0425,1.0425,0,0,0,.25.78,1.1726,1.1726,0,0,0,.83.2393h4.7393l.1406,2.32a57.819,57.819,0,0,1-5.8408.22,3.19,3.19,0,0,1-2.38-.8,2.9341,2.9341,0,0,1-.7793-2.14v-10.92Z"/>
    <path class="e" d="M693.991,366.7807v8.3q0,3.16-1.21,4.46t-4.17,1.3q-3.12,0-4.39-1.3-1.2716-1.2993-1.27-4.46v-8.3h3.04v8.3a4.5479,4.5479,0,0,0,.53,2.6,2.3127,2.3127,0,0,0,1.95.7,2.2877,2.2877,0,0,0,1.93-.7,4.5481,4.5481,0,0,0,.53-2.6v-8.3Z"/>
  </g>
  <g>
    <path d="M162.9432,539.4575v-13.8q2.8388-.18,5.3593-.1807,3.3,0,4.59,1.52t1.29,5.56q0,4.04-1.29,5.5606t-4.59,1.5195Q165.783,539.6372,162.9432,539.4575Zm3.04-11.58v9.34c.2266,0,.5957.0039,1.1094.01q.77.0117,1.21.0108a2.2313,2.2313,0,0,0,2.11-.9805,12.3207,12.3207,0,0,0,0-7.41,2.2247,2.2247,0,0,0-2.11-.9892Z"/>
    <path d="M176.6228,531.7973l-.28-2a28.8949,28.8949,0,0,1,5.14-.4794,4.44,4.44,0,0,1,2.94.8095,3.5591,3.5591,0,0,1,.94,2.8106v6.5195h-2.34l-.3-1.5a4.6008,4.6008,0,0,1-3.64,1.74,3.5013,3.5013,0,0,1-2.32-.75,2.57,2.57,0,0,1-.9-2.09v-1a2.2555,2.2555,0,0,1,.8-1.8408,3.3944,3.3944,0,0,1,2.2207-.6592h3.5195v-.44a1.2984,1.2984,0,0,0-.35-1.02,2.177,2.177,0,0,0-1.27-.2607Q179.1428,531.6372,176.6228,531.7973Zm2.1592,4.28v.38q0,1.02,1.16,1.0195a4.0788,4.0788,0,0,0,2.46-.96v-1.38h-2.66A.8513.8513,0,0,0,178.782,536.0776Z"/>
    <path d="M191.5418,531.5776v4.66a1.0276,1.0276,0,0,0,.24.7793,1.2418,1.2418,0,0,0,.84.2207h1.2607l.3193,2.0595a8.4488,8.4488,0,0,1-2.7793.4,2.79,2.79,0,0,1-2.08-.75,2.8445,2.8445,0,0,1-.74-2.09v-5.28h-1.74v-1.88l1.74-.1006v-2.76h2.9395v2.76h2.74v1.9805Z"/>
    <path d="M196.1824,531.7973l-.28-2a28.8969,28.8969,0,0,1,5.14-.4794,4.44,4.44,0,0,1,2.94.8095,3.5591,3.5591,0,0,1,.9395,2.8106v6.5195h-2.34l-.3-1.5a4.6006,4.6006,0,0,1-3.64,1.74,3.5013,3.5013,0,0,1-2.32-.75,2.57,2.57,0,0,1-.9-2.09v-1a2.2555,2.2555,0,0,1,.8-1.8408,3.3944,3.3944,0,0,1,2.2207-.6592h3.5195v-.44a1.2991,1.2991,0,0,0-.35-1.02,2.1772,2.1772,0,0,0-1.27-.2607Q198.7024,531.6372,196.1824,531.7973Zm2.1592,4.28v.38q0,1.02,1.16,1.0195a4.0788,4.0788,0,0,0,2.46-.96v-1.38h-2.66A.8513.8513,0,0,0,198.3416,536.0776Z"/>
    <path d="M214.5418,525.4575v3.14a8.8605,8.8605,0,0,1-.26,2.32,4.7846,4.7846,0,0,1,3.5-1.6,3.1689,3.1689,0,0,1,2.77,1.1894,6.9438,6.9438,0,0,1,.85,3.9307,6.3216,6.3216,0,0,1-1.0391,3.8994q-1.0414,1.3608-3.78,1.36a20.4857,20.4857,0,0,1-2.69-.2,9.2576,9.2576,0,0,1-2.33-.5595V525.4575Zm-.02,7.06v4.8008a7.9518,7.9518,0,0,0,2,.18,1.6476,1.6476,0,0,0,1.4306-.68,4.7544,4.7544,0,0,0,.41-2.36,4.8284,4.8284,0,0,0-.3408-2.21,1.5246,1.5246,0,0,0-1.42-.57A4.0768,4.0768,0,0,0,214.5213,532.5171Z"/>
    <path d="M232.8016,529.5971v9.86h-2.34l-.2207-1.36a6.5572,6.5572,0,0,1-4.0791,1.62,2.44,2.44,0,0,1-2.78-2.74v-7.38h2.96v6.4805a1.2579,1.2579,0,0,0,.22.8994,1.1093,1.1093,0,0,0,.84.2608,6.04,6.04,0,0,0,2.46-.82v-6.82Z"/>
    <path d="M239.6209,535.7973l-2.46-.66a3.5381,3.5381,0,0,1-1.88-1.09,3.1111,3.1111,0,0,1-.5195-1.91,2.433,2.433,0,0,1,.95-2.18,6.0843,6.0843,0,0,1,3.25-.64,28.7556,28.7556,0,0,1,4.56.38l-.2,1.8994q-2.52-.0394-3.8-.04-.7,0-.97.0108a2.9871,2.9871,0,0,0-.54.0693c-.1806.04-.29.1035-.33.19a.9716.9716,0,0,0-.06.39,1.4341,1.4341,0,0,0,.0107.1806.3765.3765,0,0,0,.05.1494.9344.9344,0,0,0,.07.11.4.4,0,0,0,.1094.09.969.969,0,0,0,.13.07c.0332.0126.0938.0361.1807.0693a1.9907,1.9907,0,0,0,.1992.07q.07.0205.2607.07c.126.0332.2227.0567.29.0693l2.52.6807a3.9324,3.9324,0,0,1,1.88,1.01,2.7383,2.7383,0,0,1,.56,1.87,2.5849,2.5849,0,0,1-1.02,2.39,7.0638,7.0638,0,0,1-3.5.63,26.7161,26.7161,0,0,1-4.42-.34l.18-1.92q.7208.0409,3.42.04a9.5186,9.5186,0,0,0,2.0108-.13.58.58,0,0,0,.47-.61,1.6369,1.6369,0,0,0-.01-.18.4127.4127,0,0,0-.05-.15.5652.5652,0,0,0-.08-.1094.6053.6053,0,0,0-.13-.09c-.06-.0332-.1074-.0606-.1406-.08a1.172,1.172,0,0,0-.1894-.08c-.0938-.0332-.167-.0566-.2207-.07s-.1465-.0361-.2793-.07A2.3847,2.3847,0,0,1,239.6209,535.7973Z"/>
  </g>
  <g>
    <path d="M168.451,578.2876h-4.74l-1,3.62h-3.12l3.9805-13a.95.95,0,0,1,.38-.58,1.122,1.122,0,0,1,.68-.22h2.8808a.9809.9809,0,0,1,1.06.8l3.9805,13H169.451Zm-.66-2.36-1.16-4.22q-.2388-.999-.2793-1.3h-.54c-.0273.1338-.0732.3467-.1406.64s-.1191.5137-.1592.66l-1.16,4.22Z"/>
    <path d="M183.2312,567.9077v14h-2.34l-.24-1.44a4.68,4.68,0,0,1-3.76,1.6806,2.9084,2.9084,0,0,1-2.67-1.33,7.5084,7.5084,0,0,1-.83-3.93,6.4881,6.4881,0,0,1,.92-3.9805,3.4567,3.4567,0,0,1,2.8594-1.14,5.5755,5.5755,0,0,1,3.2.88q-.1-1.1-.1-2.0605v-2.68Zm-2.96,11v-4.56a8.2484,8.2484,0,0,0-2.1006-.3808,1.5212,1.5212,0,0,0-1.3691.56,7.4658,7.4658,0,0,0-.0108,4.61,1.3946,1.3946,0,0,0,1.28.5693,2.9432,2.9432,0,0,0,1.06-.17A6.4946,6.4946,0,0,0,180.2713,578.9077Z"/>
    <path d="M195.1111,567.9077v14h-2.34l-.24-1.44a4.68,4.68,0,0,1-3.76,1.6806,2.9083,2.9083,0,0,1-2.67-1.33,7.5074,7.5074,0,0,1-.83-3.93,6.4881,6.4881,0,0,1,.92-3.9805,3.4567,3.4567,0,0,1,2.8594-1.14,5.5755,5.5755,0,0,1,3.2.88q-.1-1.1-.1-2.0605v-2.68Zm-2.96,11v-4.56a8.2484,8.2484,0,0,0-2.1006-.3808,1.5215,1.5215,0,0,0-1.3692.56,7.4667,7.4667,0,0,0-.0107,4.61,1.3946,1.3946,0,0,0,1.28.5693,2.9422,2.9422,0,0,0,1.06-.17A6.4913,6.4913,0,0,0,192.1512,578.9077Z"/>
    <path d="M204.6307,571.768l-.3,2.7393h-.8a10.7979,10.7979,0,0,0-3.02.6807v6.72h-2.96v-9.86h2.3l.2607,1.4405a6.2168,6.2168,0,0,1,4-1.72Z"/>
    <path d="M212.19,577.9673h-3.56a2.039,2.039,0,0,0,.6494,1.45,2.9469,2.9469,0,0,0,1.69.37,35.95,35.95,0,0,0,3.68-.22l.28,1.84a10.137,10.137,0,0,1-4.3.74,5.41,5.41,0,0,1-3.96-1.2,5.5117,5.5117,0,0,1-1.1807-3.96q0-2.9,1.15-4.0606a5.3229,5.3229,0,0,1,3.87-1.1592,5.8738,5.8738,0,0,1,3.56.85,3.1174,3.1174,0,0,1,1.12,2.59,2.7667,2.7667,0,0,1-.71,2.07A3.2018,3.2018,0,0,1,212.19,577.9673Zm-3.62-1.7793h2.8a.8553.8553,0,0,0,.7305-.2608,1.28,1.28,0,0,0,.1894-.76,1.14,1.14,0,0,0-.3593-.97,2.3231,2.3231,0,0,0-1.32-.2705,2.1047,2.1047,0,0,0-1.5595.45A2.96,2.96,0,0,0,208.57,576.188Z"/>
    <path d="M221.49,578.2475l-2.46-.66a3.5377,3.5377,0,0,1-1.88-1.09,3.11,3.11,0,0,1-.52-1.91,2.433,2.433,0,0,1,.95-2.18,6.0841,6.0841,0,0,1,3.25-.64,28.766,28.766,0,0,1,4.5595.38l-.2,1.8994q-2.52-.0394-3.8-.04-.7,0-.97.0107a2.994,2.994,0,0,0-.54.0694c-.1807.04-.29.1035-.33.19a.97.97,0,0,0-.0606.39,1.4143,1.4143,0,0,0,.0108.1806.3734.3734,0,0,0,.05.1494.9216.9216,0,0,0,.07.11.3986.3986,0,0,0,.1094.09.9548.9548,0,0,0,.13.07c.0333.0127.0938.0362.1807.0694a2,2,0,0,0,.1992.07q.07.0205.2608.07c.1259.0332.2226.0566.29.0693l2.52.6807a3.9319,3.9319,0,0,1,1.88,1.01,2.7378,2.7378,0,0,1,.5606,1.87,2.5849,2.5849,0,0,1-1.02,2.39,7.0638,7.0638,0,0,1-3.5.63,26.7173,26.7173,0,0,1-4.42-.34l.18-1.92q.7207.0409,3.42.04a9.5181,9.5181,0,0,0,2.0107-.13.58.58,0,0,0,.47-.61,1.6637,1.6637,0,0,0-.01-.18.4165.4165,0,0,0-.05-.15.5737.5737,0,0,0-.08-.1094.6079.6079,0,0,0-.13-.09c-.0606-.0332-.1074-.0606-.1406-.08a1.17,1.17,0,0,0-.19-.08c-.0937-.0332-.167-.0566-.2207-.07s-.1465-.0361-.2793-.07A2.3847,2.3847,0,0,1,221.49,578.2475Z"/>
    <path d="M232.03,578.2475l-2.46-.66a3.5381,3.5381,0,0,1-1.88-1.09,3.11,3.11,0,0,1-.5195-1.91,2.433,2.433,0,0,1,.95-2.18,6.0841,6.0841,0,0,1,3.25-.64,28.7663,28.7663,0,0,1,4.56.38l-.2,1.8994q-2.52-.0394-3.8-.04-.7,0-.97.0107a2.9963,2.9963,0,0,0-.54.0694c-.1807.04-.29.1035-.33.19a.9716.9716,0,0,0-.06.39,1.4341,1.4341,0,0,0,.0107.1806.3765.3765,0,0,0,.05.1494.9344.9344,0,0,0,.07.11.4.4,0,0,0,.1094.09.9548.9548,0,0,0,.13.07c.0332.0127.0937.0362.1807.0694a1.9907,1.9907,0,0,0,.1992.07q.07.0205.2607.07c.126.0332.2227.0566.29.0693l2.5195.6807a3.9324,3.9324,0,0,1,1.88,1.01,2.7383,2.7383,0,0,1,.56,1.87,2.5849,2.5849,0,0,1-1.02,2.39,7.0638,7.0638,0,0,1-3.5.63,26.7161,26.7161,0,0,1-4.42-.34l.18-1.92q.7206.0409,3.42.04a9.5174,9.5174,0,0,0,2.0107-.13.58.58,0,0,0,.47-.61,1.6369,1.6369,0,0,0-.01-.18.4127.4127,0,0,0-.05-.15.5694.5694,0,0,0-.08-.1094.6053.6053,0,0,0-.13-.09c-.06-.0332-.1074-.0606-.1406-.08a1.172,1.172,0,0,0-.1894-.08c-.0938-.0332-.167-.0566-.2208-.07s-.1464-.0361-.2792-.07A2.3847,2.3847,0,0,1,232.03,578.2475Z"/>
    <path d="M245.4705,567.9077v3.14a8.8605,8.8605,0,0,1-.26,2.32,4.7843,4.7843,0,0,1,3.5-1.6,3.1689,3.1689,0,0,1,2.77,1.1895,6.9438,6.9438,0,0,1,.85,3.9307,6.3216,6.3216,0,0,1-1.0391,3.8994q-1.0414,1.3608-3.78,1.36a20.503,20.503,0,0,1-2.69-.2,9.2576,9.2576,0,0,1-2.33-.56V567.9077Zm-.02,7.06v4.8007a7.9477,7.9477,0,0,0,2,.18,1.6477,1.6477,0,0,0,1.4307-.68,4.755,4.755,0,0,0,.41-2.36,4.827,4.827,0,0,0-.3408-2.21,1.5246,1.5246,0,0,0-1.42-.57A4.0768,4.0768,0,0,0,245.45,574.9673Z"/>
    <path d="M263.73,572.0473v9.86h-2.34l-.2207-1.36a6.5572,6.5572,0,0,1-4.0791,1.62,2.44,2.44,0,0,1-2.78-2.74v-7.38h2.96v6.4805a1.2579,1.2579,0,0,0,.22.8994,1.11,1.11,0,0,0,.84.2608,6.04,6.04,0,0,0,2.46-.82v-6.82Z"/>
    <path d="M270.55,578.2475l-2.46-.66a3.5373,3.5373,0,0,1-1.88-1.09,3.11,3.11,0,0,1-.52-1.91,2.433,2.433,0,0,1,.95-2.18,6.0841,6.0841,0,0,1,3.25-.64,28.7663,28.7663,0,0,1,4.56.38l-.2,1.8994q-2.52-.0394-3.8-.04-.7,0-.97.0107a2.9962,2.9962,0,0,0-.54.0694c-.1806.04-.29.1035-.33.19a.9716.9716,0,0,0-.06.39,1.4341,1.4341,0,0,0,.0107.1806.3765.3765,0,0,0,.05.1494.9332.9332,0,0,0,.07.11.3978.3978,0,0,0,.1093.09.9548.9548,0,0,0,.13.07c.0332.0127.0938.0362.1807.0694a1.9907,1.9907,0,0,0,.1992.07q.07.0205.2607.07c.126.0332.2227.0566.29.0693l2.5195.6807a3.9324,3.9324,0,0,1,1.88,1.01,2.7383,2.7383,0,0,1,.56,1.87,2.5849,2.5849,0,0,1-1.02,2.39,7.0635,7.0635,0,0,1-3.5.63,26.7161,26.7161,0,0,1-4.42-.34l.18-1.92q.7208.0409,3.42.04a9.5186,9.5186,0,0,0,2.0108-.13.58.58,0,0,0,.47-.61,1.6369,1.6369,0,0,0-.01-.18.4127.4127,0,0,0-.05-.15.5652.5652,0,0,0-.08-.1094.6068.6068,0,0,0-.13-.09c-.0606-.0332-.1075-.0606-.1407-.08a1.1679,1.1679,0,0,0-.1894-.08c-.0938-.0332-.167-.0566-.2207-.07s-.1465-.0361-.2793-.07A2.3847,2.3847,0,0,1,270.55,578.2475Z"/>
  </g>
  <g>
    <path d="M167.2859,622.9692l.26,2.26a15.0606,15.0606,0,0,1-4.42.56q-3.2007,0-4.5-1.6006-1.3008-1.6-1.3-5.54t1.3-5.54q1.2993-1.6,4.5-1.6a16.9491,16.9491,0,0,1,4.14.46l-.26,2.28q-1.62-.1-3.88-.1006a2.1635,2.1635,0,0,0-2.05.95,11.7175,11.7175,0,0,0,0,7.1006,2.1629,2.1629,0,0,0,2.05.9492A35.0965,35.0965,0,0,0,167.2859,622.9692Z"/>
    <path d="M173.9851,615.41a5.2972,5.2972,0,0,1,3.91,1.19q1.15,1.1909,1.15,4.03t-1.15,4.01a5.3536,5.3536,0,0,1-3.91,1.17q-2.78,0-3.93-1.17t-1.15-4.01q0-2.8594,1.15-4.04Q171.2054,615.41,173.9851,615.41Zm0,2.22a1.7752,1.7752,0,0,0-1.58.6,4.8243,4.8243,0,0,0-.3994,2.4,4.7086,4.7086,0,0,0,.3994,2.36,1.7752,1.7752,0,0,0,1.58.6,1.7538,1.7538,0,0,0,1.55-.6,4.6062,4.6062,0,0,0,.41-2.36,4.8262,4.8262,0,0,0-.3994-2.39A1.7363,1.7363,0,0,0,173.9851,617.6294Z"/>
    <path d="M183.4656,615.6889l.22,1.46a6.7327,6.7327,0,0,1,4.22-1.7393,2.8045,2.8045,0,0,1,2.0508.6993,2.746,2.746,0,0,1,.71,2.04v7.4h-2.94v-6.4805a1.4579,1.4579,0,0,0-.21-.9092.9376.9376,0,0,0-.75-.25,6.915,6.915,0,0,0-2.74.8995v6.74h-2.96v-9.86Z"/>
    <path d="M196.8846,617.6694v4.66a1.0272,1.0272,0,0,0,.24.7793,1.2415,1.2415,0,0,0,.84.2207h1.2608l.3193,2.0595a8.4488,8.4488,0,0,1-2.7793.4,2.79,2.79,0,0,1-2.08-.75,2.8449,2.8449,0,0,1-.74-2.09v-5.28h-1.74v-1.88l1.74-.1006v-2.76h2.94v2.76h2.74v1.9805Z"/>
    <path d="M208.3455,615.41l-.3,2.7393h-.8a10.7972,10.7972,0,0,0-3.02.6807v6.72h-2.96v-9.86h2.3l.2608,1.4405a6.2166,6.2166,0,0,1,4-1.72Z"/>
    <path d="M214.285,615.41a5.297,5.297,0,0,1,3.91,1.19q1.15,1.1909,1.15,4.03t-1.15,4.01a5.3535,5.3535,0,0,1-3.91,1.17q-2.78,0-3.93-1.17t-1.15-4.01q0-2.8594,1.15-4.04Q211.5052,615.41,214.285,615.41Zm0,2.22a1.7752,1.7752,0,0,0-1.58.6,4.8243,4.8243,0,0,0-.3994,2.4,4.7086,4.7086,0,0,0,.3994,2.36,1.7752,1.7752,0,0,0,1.58.6,1.7537,1.7537,0,0,0,1.55-.6,4.6062,4.6062,0,0,0,.41-2.36,4.8262,4.8262,0,0,0-.3994-2.39A1.7362,1.7362,0,0,0,214.285,617.6294Z"/>
    <path d="M224.325,611.5493v10.78q0,1,1.12,1h.8l.3408,2.0595a5.2948,5.2948,0,0,1-2.36.4,2.93,2.93,0,0,1-2.08-.71,2.6169,2.6169,0,0,1-.76-2.0108V611.5493Z"/>
    <path d="M234.7654,611.5493v3.14a8.8652,8.8652,0,0,1-.26,2.32,4.7844,4.7844,0,0,1,3.5-1.6,3.1687,3.1687,0,0,1,2.77,1.19,6.9438,6.9438,0,0,1,.85,3.9307,6.3216,6.3216,0,0,1-1.0391,3.8994q-1.0414,1.3608-3.78,1.36a20.5044,20.5044,0,0,1-2.69-.2,9.2567,9.2567,0,0,1-2.33-.5595V611.5493Zm-.02,7.06V623.41a7.9477,7.9477,0,0,0,2,.18,1.6477,1.6477,0,0,0,1.4307-.68,4.755,4.755,0,0,0,.41-2.36,4.827,4.827,0,0,0-.3408-2.21,1.5245,1.5245,0,0,0-1.42-.57A4.0768,4.0768,0,0,0,234.7449,618.6089Z"/>
    <path d="M253.0252,615.6889v9.86h-2.34l-.2207-1.36a6.557,6.557,0,0,1-4.0791,1.62,2.44,2.44,0,0,1-2.78-2.74v-7.38h2.96v6.4805a1.2579,1.2579,0,0,0,.22.8994,1.109,1.109,0,0,0,.84.2608,6.04,6.04,0,0,0,2.46-.82v-6.82Z"/>
    <path d="M259.8445,621.8891l-2.46-.66a3.5377,3.5377,0,0,1-1.88-1.09,3.11,3.11,0,0,1-.52-1.91,2.4332,2.4332,0,0,1,.95-2.18,6.0846,6.0846,0,0,1,3.25-.64,28.7663,28.7663,0,0,1,4.56.38l-.2,1.8994q-2.52-.0394-3.8-.04-.7,0-.97.0107a2.9962,2.9962,0,0,0-.54.0694c-.1806.04-.29.1035-.33.19a.97.97,0,0,0-.0606.39,1.4143,1.4143,0,0,0,.0108.1806.3734.3734,0,0,0,.05.1494.9216.9216,0,0,0,.07.11.397.397,0,0,0,.1094.09.9548.9548,0,0,0,.13.07c.0332.0127.0938.0362.1807.0694a1.9907,1.9907,0,0,0,.1992.07q.07.0205.2608.07c.1259.0332.2226.0566.29.0693l2.5195.6807a3.9319,3.9319,0,0,1,1.88,1.01,2.7378,2.7378,0,0,1,.5606,1.87,2.5851,2.5851,0,0,1-1.0205,2.39,7.0638,7.0638,0,0,1-3.5.63,26.7165,26.7165,0,0,1-4.42-.34l.18-1.92q.7207.0409,3.42.04a9.5186,9.5186,0,0,0,2.0108-.13.58.58,0,0,0,.47-.61,1.6369,1.6369,0,0,0-.01-.18.4127.4127,0,0,0-.05-.15.5694.5694,0,0,0-.08-.1094.6079.6079,0,0,0-.13-.09c-.0606-.0332-.1074-.0606-.1406-.08a1.17,1.17,0,0,0-.1895-.08c-.0937-.0332-.167-.0566-.2207-.07s-.1465-.0361-.2793-.07A2.3847,2.3847,0,0,1,259.8445,621.8891Z"/>
  </g>
  <g>
    <path d="M862.5779,115.9624H858.24l-.915,3.3135H854.47l3.6426-11.8975a.8736.8736,0,0,1,.3477-.5313,1.0281,1.0281,0,0,1,.622-.2011h2.6358a.8981.8981,0,0,1,.9707.7324l3.6426,11.8975H863.493Zm-.6035-2.1592-1.0615-3.8623q-.22-.9156-.2569-1.19h-.4941q-.0366.183-.1279.5859t-.1465.6045l-1.0615,3.8623Z"/>
    <path d="M876.1043,106.4624v12.8135h-2.1416l-.22-1.3184a4.28,4.28,0,0,1-3.4405,1.5381,2.663,2.663,0,0,1-2.4443-1.2178,6.8769,6.8769,0,0,1-.76-3.5967,5.9371,5.9371,0,0,1,.8428-3.6425,3.1627,3.1627,0,0,1,2.6172-1.043,5.1032,5.1032,0,0,1,2.9287.8056q-.0923-1.0062-.0918-1.8857v-2.4531Zm-2.709,10.0674v-4.1729a7.576,7.576,0,0,0-1.9219-.3476,1.3925,1.3925,0,0,0-1.2539.5127,4.4243,4.4243,0,0,0-.3379,2.1416,4.3642,4.3642,0,0,0,.3291,2.0771,1.2764,1.2764,0,0,0,1.1719.5215,2.7,2.7,0,0,0,.97-.1553A5.899,5.899,0,0,0,873.3953,116.53Z"/>
    <path d="M886.9773,106.4624v12.8135h-2.1416l-.22-1.3184a4.28,4.28,0,0,1-3.44,1.5381,2.6631,2.6631,0,0,1-2.4444-1.2178,6.878,6.878,0,0,1-.76-3.5967,5.9372,5.9372,0,0,1,.8427-3.6425,3.1628,3.1628,0,0,1,2.6172-1.043,5.103,5.103,0,0,1,2.9287.8056q-.0923-1.0062-.0917-1.8857v-2.4531ZM884.2684,116.53v-4.1729a7.5767,7.5767,0,0,0-1.9219-.3476,1.3924,1.3924,0,0,0-1.2539.5127,4.4243,4.4243,0,0,0-.3379,2.1416,4.3642,4.3642,0,0,0,.3291,2.0771,1.2762,1.2762,0,0,0,1.1719.5215,2.7,2.7,0,0,0,.97-.1553A5.9025,5.9025,0,0,0,884.2684,116.53Z"/>
    <path d="M895.6912,109.9956l-.2744,2.5078h-.7324a9.8571,9.8571,0,0,0-2.7647.6221v6.15h-2.709v-9.0245h2.1055l.2383,1.3184a5.6861,5.6861,0,0,1,3.66-1.5742Z"/>
    <path d="M902.61,115.6694h-3.2578a1.8663,1.8663,0,0,0,.5948,1.3272,2.6905,2.6905,0,0,0,1.5468.3388,32.6766,32.6766,0,0,0,3.3672-.2011l.2569,1.6836a9.269,9.269,0,0,1-3.9356.6777,4.9493,4.9493,0,0,1-3.624-1.0986,5.0422,5.0422,0,0,1-1.08-3.6241,5.2092,5.2092,0,0,1,1.0527-3.7158,4.8645,4.8645,0,0,1,3.5411-1.0615,5.38,5.38,0,0,1,3.2588.7783,2.8514,2.8514,0,0,1,1.0244,2.37,2.5315,2.5315,0,0,1-.6494,1.8946A2.93,2.93,0,0,1,902.61,115.6694Zm-3.3134-1.6289h2.5625a.7858.7858,0,0,0,.6689-.2373,1.177,1.177,0,0,0,.1738-.6963,1.046,1.046,0,0,0-.33-.8877,2.1277,2.1277,0,0,0-1.208-.2471,1.929,1.929,0,0,0-1.4278.4122A2.7176,2.7176,0,0,0,899.2967,114.0405Z"/>
    <path d="M911.1209,115.9262l-2.251-.6044a3.2315,3.2315,0,0,1-1.7207-.9971,2.8466,2.8466,0,0,1-.4756-1.7481,2.2268,2.2268,0,0,1,.8692-1.9951,5.57,5.57,0,0,1,2.9746-.5859,26.391,26.391,0,0,1,4.1728.3476l-.1826,1.7393q-2.3071-.0366-3.4775-.0371-.6417,0-.8887.01a2.7684,2.7684,0,0,0-.4941.0634c-.1641.0371-.2647.0948-.3018.1739a.9027.9027,0,0,0-.0547.3574,1.365,1.365,0,0,0,.0088.164.36.36,0,0,0,.0459.1377.9113.9113,0,0,0,.0645.1006.3619.3619,0,0,0,.1005.0821.6847.6847,0,0,0,.1192.0644q.0455.019.164.0645c.0791.03.1407.0517.1836.0634s.1221.0342.2373.0645.2051.0518.2657.0635l2.3066.623a3.6047,3.6047,0,0,1,1.7207.9238,2.5064,2.5064,0,0,1,.5127,1.712,2.3661,2.3661,0,0,1-.9336,2.1875,6.4764,6.4764,0,0,1-3.2031.5761,24.4856,24.4856,0,0,1-4.0459-.3105l.165-1.7578q.6592.0366,3.13.0371a8.737,8.737,0,0,0,1.84-.1192.53.53,0,0,0,.43-.5586,1.4176,1.4176,0,0,0-.0087-.165.3671.3671,0,0,0-.0459-.1367.4731.4731,0,0,0-.0733-.1006.5621.5621,0,0,0-.1191-.083c-.0547-.03-.0977-.0547-.128-.0732a1.302,1.302,0,0,0-.1738-.0733c-.0859-.03-.1523-.0517-.2012-.0635s-.1347-.0332-.2568-.0644A2.26,2.26,0,0,1,911.1209,115.9262Z"/>
    <path d="M920.7674,115.9262l-2.251-.6044a3.2315,3.2315,0,0,1-1.7207-.9971,2.8466,2.8466,0,0,1-.4756-1.7481,2.2269,2.2269,0,0,1,.8691-1.9951,5.5706,5.5706,0,0,1,2.9747-.5859,26.391,26.391,0,0,1,4.1728.3476l-.1826,1.7393q-2.3071-.0366-3.4775-.0371-.6417,0-.8887.01a2.7706,2.7706,0,0,0-.4942.0634c-.164.0371-.2646.0948-.3017.1739a.9027.9027,0,0,0-.0547.3574,1.365,1.365,0,0,0,.0088.164.3579.3579,0,0,0,.0459.1377.9279.9279,0,0,0,.0644.1006.3642.3642,0,0,0,.1006.0821.6847.6847,0,0,0,.1192.0644q.0453.019.164.0645c.0791.03.1407.0517.1836.0634s.1221.0342.2373.0645.2051.0518.2656.0635l2.3067.623a3.6047,3.6047,0,0,1,1.7207.9238,2.5064,2.5064,0,0,1,.5127,1.712,2.3661,2.3661,0,0,1-.9336,2.1875,6.4767,6.4767,0,0,1-3.2031.5761,24.4856,24.4856,0,0,1-4.0459-.3105l.165-1.7578q.6593.0366,3.13.0371a8.7358,8.7358,0,0,0,1.84-.1192.53.53,0,0,0,.43-.5586,1.3945,1.3945,0,0,0-.0088-.165.3636.3636,0,0,0-.0459-.1367.47.47,0,0,0-.0732-.1006.5621.5621,0,0,0-.1191-.083c-.0547-.03-.0977-.0547-.128-.0732a1.302,1.302,0,0,0-.1738-.0733c-.0859-.03-.1523-.0517-.2012-.0635s-.1347-.0332-.2568-.0644A2.26,2.26,0,0,1,920.7674,115.9262Z"/>
  </g>
  <g>
    <path d="M949.0867,119.2759v-12.63q2.5986-.1656,4.9053-.1651,3.0206,0,4.2012,1.3916t1.1806,5.0879q0,3.6987-1.1806,5.0889t-4.2012,1.3916Q951.6864,119.4409,949.0867,119.2759Zm2.7822-10.5987v8.5489q.3107,0,1.0157.0087c.47.0069.8388.0088,1.1074.0088a2.0422,2.0422,0,0,0,1.9316-.8965,7.48,7.48,0,0,0,.5215-3.3867,7.5476,7.5476,0,0,0-.5215-3.3955,2.0356,2.0356,0,0,0-1.9316-.9053Z"/>
    <path d="M961.6072,112.2651l-.2558-1.83a26.467,26.467,0,0,1,4.7041-.4394,4.0614,4.0614,0,0,1,2.69.7412,3.2564,3.2564,0,0,1,.86,2.5723v5.9668h-2.1416l-.2744-1.3731a4.2112,4.2112,0,0,1-3.331,1.5928,3.2056,3.2056,0,0,1-2.1241-.6865,2.3542,2.3542,0,0,1-.8232-1.9131v-.9151a2.0614,2.0614,0,0,1,.7324-1.6836,3.0977,3.0977,0,0,1,2.0313-.6044h3.2217v-.4024a1.19,1.19,0,0,0-.32-.9336,1.9984,1.9984,0,0,0-1.1621-.2383Q963.9135,112.1186,961.6072,112.2651Zm1.9766,3.917v.3477q0,.9345,1.0625.9336a3.7406,3.7406,0,0,0,2.251-.878v-1.2636h-2.4346A.7792.7792,0,0,0,963.5838,116.1821Z"/>
    <path d="M975.2615,112.0639v4.2647a.9417.9417,0,0,0,.22.7139,1.1363,1.1363,0,0,0,.7686.2011h1.1533l.293,1.8858a7.733,7.733,0,0,1-2.544.3662,2.5539,2.5539,0,0,1-1.9043-.6865,2.6075,2.6075,0,0,1-.6767-1.9131v-4.8321h-1.5928v-1.7207l1.5928-.0918v-2.5253h2.69v2.5253h2.5078v1.8125Z"/>
    <path d="M979.5086,112.2651l-.2559-1.83a26.4687,26.4687,0,0,1,4.7041-.4394,4.0615,4.0615,0,0,1,2.69.7412,3.2564,3.2564,0,0,1,.86,2.5723v5.9668H985.366l-.2744-1.3731a4.2113,4.2113,0,0,1-3.3311,1.5928,3.2053,3.2053,0,0,1-2.124-.6865,2.3542,2.3542,0,0,1-.8232-1.9131v-.9151a2.0614,2.0614,0,0,1,.7324-1.6836,3.0975,3.0975,0,0,1,2.0312-.6044h3.2217v-.4024a1.19,1.19,0,0,0-.32-.9336,1.9988,1.9988,0,0,0-1.1621-.2383Q981.8147,112.1186,979.5086,112.2651Zm1.9765,3.917v.3477q0,.9345,1.0625.9336a3.74,3.74,0,0,0,2.251-.878v-1.2636h-2.4345A.7793.7793,0,0,0,981.4851,116.1821Z"/>
  </g>
  <polyline class="i" points="843.052 169.961 843.052 133.42 1024.69 133.42 1024.69 169.961"/>
  <polyline class="i" points="843.052 238.523 843.052 201.981 1024.69 201.981 1024.69 238.523"/>
  <polyline class="i" points="843.052 309.79 843.052 273.249 1024.69 273.249 1024.69 309.79"/>
  <polyline class="i" points="843.052 379.254 843.052 342.712 1024.69 342.712 1024.69 379.254"/>
  <path class="i" d="M1024.69,444.9869V422.7124H843.0518v22.2745a14.267,14.267,0,0,0,14.267,14.267h153.1038A14.2669,14.2669,0,0,0,1024.69,444.9869Z"/>
  <rect class="d" x="288.2208" y="567.9431" width="748.9115" height="16.5137" rx="5.9621"/>
  <g>
    <path d="M853.6385,146.1128a3.8568,3.8568,0,0,1,3.3115,1.28q.9433,1.28.9443,4.4483t-.9443,4.4473a4.9042,4.9042,0,0,1-6.6084,0q-.9433-1.2789-.9434-4.4473t.9434-4.4483A3.8383,3.8383,0,0,1,853.6385,146.1128Zm-.0166,1.9365a1.4526,1.4526,0,0,0-1.4483.7754,12.2849,12.2849,0,0,0,0,6.0322,1.4532,1.4532,0,0,0,1.4483.7764,1.4986,1.4986,0,0,0,1.4882-.7764,12.0429,12.0429,0,0,0,0-6.0322A1.498,1.498,0,0,0,853.6219,148.0493Z"/>
    <path d="M863.7019,146.1128a3.8569,3.8569,0,0,1,3.3116,1.28q.9433,1.28.9443,4.4483t-.9443,4.4473a4.9042,4.9042,0,0,1-6.6084,0q-.9433-1.2789-.9434-4.4473t.9434-4.4483A3.8382,3.8382,0,0,1,863.7019,146.1128Zm-.0166,1.9365a1.4525,1.4525,0,0,0-1.4482.7754,12.2849,12.2849,0,0,0,0,6.0322,1.4532,1.4532,0,0,0,1.4482.7764,1.4986,1.4986,0,0,0,1.4883-.7764,12.0429,12.0429,0,0,0,0-6.0322A1.498,1.498,0,0,0,863.6853,148.0493Z"/>
    <path d="M873.7664,146.1128a3.8568,3.8568,0,0,1,3.3115,1.28q.9434,1.28.9444,4.4483t-.9444,4.4473a4.9042,4.9042,0,0,1-6.6084,0q-.9434-1.2789-.9433-4.4473t.9433-4.4483A3.8383,3.8383,0,0,1,873.7664,146.1128Zm-.0166,1.9365a1.4525,1.4525,0,0,0-1.4482.7754,12.2849,12.2849,0,0,0,0,6.0322,1.4531,1.4531,0,0,0,1.4482.7764,1.4988,1.4988,0,0,0,1.4883-.7764,12.0429,12.0429,0,0,0,0-6.0322A1.4982,1.4982,0,0,0,873.75,148.0493Z"/>
    <path d="M883.8309,146.1128a3.8568,3.8568,0,0,1,3.3115,1.28q.9434,1.28.9443,4.4483t-.9443,4.4473a4.9042,4.9042,0,0,1-6.6084,0q-.9434-1.2789-.9434-4.4473t.9434-4.4483A3.8383,3.8383,0,0,1,883.8309,146.1128Zm-.0167,1.9365a1.4525,1.4525,0,0,0-1.4482.7754,12.2849,12.2849,0,0,0,0,6.0322,1.4532,1.4532,0,0,0,1.4482.7764,1.4986,1.4986,0,0,0,1.4883-.7764,12.0429,12.0429,0,0,0,0-6.0322A1.498,1.498,0,0,0,883.8142,148.0493Z"/>
    <path d="M893.8953,146.1128a3.8568,3.8568,0,0,1,3.3115,1.28q.9433,1.28.9444,4.4483t-.9444,4.4473a4.9042,4.9042,0,0,1-6.6084,0q-.9433-1.2789-.9433-4.4473t.9433-4.4483A3.8383,3.8383,0,0,1,893.8953,146.1128Zm-.0166,1.9365a1.4525,1.4525,0,0,0-1.4482.7754,12.2849,12.2849,0,0,0,0,6.0322,1.4531,1.4531,0,0,0,1.4482.7764,1.4988,1.4988,0,0,0,1.4883-.7764,12.0429,12.0429,0,0,0,0-6.0322A1.4982,1.4982,0,0,0,893.8787,148.0493Z"/>
    <path d="M903.96,146.1128a3.8568,3.8568,0,0,1,3.3115,1.28q.9434,1.28.9443,4.4483t-.9443,4.4473a4.9042,4.9042,0,0,1-6.6084,0q-.9434-1.2789-.9434-4.4473t.9434-4.4483A3.8383,3.8383,0,0,1,903.96,146.1128Zm-.0166,1.9365a1.4526,1.4526,0,0,0-1.4483.7754,12.2849,12.2849,0,0,0,0,6.0322,1.4532,1.4532,0,0,0,1.4483.7764,1.4986,1.4986,0,0,0,1.4882-.7764,12.0429,12.0429,0,0,0,0-6.0322A1.498,1.498,0,0,0,903.9432,148.0493Z"/>
    <path d="M914.0242,146.1128a3.8567,3.8567,0,0,1,3.3115,1.28q.9434,1.28.9444,4.4483t-.9444,4.4473a4.9042,4.9042,0,0,1-6.6084,0q-.9434-1.2789-.9433-4.4473t.9433-4.4483A3.8385,3.8385,0,0,1,914.0242,146.1128Zm-.0166,1.9365a1.4525,1.4525,0,0,0-1.4482.7754,12.2849,12.2849,0,0,0,0,6.0322,1.4531,1.4531,0,0,0,1.4482.7764,1.4988,1.4988,0,0,0,1.4883-.7764,12.0429,12.0429,0,0,0,0-6.0322A1.4982,1.4982,0,0,0,914.0076,148.0493Z"/>
    <path d="M924.0887,146.1128a3.8568,3.8568,0,0,1,3.3115,1.28q.9433,1.28.9443,4.4483t-.9443,4.4473a4.9042,4.9042,0,0,1-6.6084,0q-.9433-1.2789-.9434-4.4473t.9434-4.4483A3.8383,3.8383,0,0,1,924.0887,146.1128Zm-.0166,1.9365a1.4526,1.4526,0,0,0-1.4483.7754,12.2849,12.2849,0,0,0,0,6.0322,1.4532,1.4532,0,0,0,1.4483.7764,1.4986,1.4986,0,0,0,1.4882-.7764,12.0429,12.0429,0,0,0,0-6.0322A1.498,1.498,0,0,0,924.0721,148.0493Z"/>
  </g>
  <g>
    <path d="M953.4705,146.1128a3.8568,3.8568,0,0,1,3.3115,1.28q.9433,1.28.9444,4.4483t-.9444,4.4473a4.9042,4.9042,0,0,1-6.6084,0q-.9433-1.2789-.9433-4.4473t.9433-4.4483A3.8383,3.8383,0,0,1,953.4705,146.1128Zm-.0166,1.9365a1.4525,1.4525,0,0,0-1.4482.7754,12.2849,12.2849,0,0,0,0,6.0322,1.4531,1.4531,0,0,0,1.4482.7764,1.4988,1.4988,0,0,0,1.4883-.7764,12.0429,12.0429,0,0,0,0-6.0322A1.4982,1.4982,0,0,0,953.4539,148.0493Z"/>
    <path d="M963.8855,157.3608h-2.4316v-7.7763a6.3754,6.3754,0,0,1,.0957-1.1993l-2.5762.6719-.2881-1.6318,2.7686-1.1045h2.4316Z"/>
    <path d="M970.7488,157.3608h-2.4316v-7.7763a6.3754,6.3754,0,0,1,.0957-1.1993l-2.5762.6719-.2881-1.6318,2.7686-1.1045h2.4316Z"/>
    <path d="M977.6121,157.3608h-2.4316v-7.7763a6.3754,6.3754,0,0,1,.0957-1.1993l-2.5762.6719-.2881-1.6318,2.7686-1.1045h2.4316Z"/>
    <path d="M984.1238,146.1128a3.8567,3.8567,0,0,1,3.3115,1.28q.9434,1.28.9444,4.4483t-.9444,4.4473a4.9042,4.9042,0,0,1-6.6084,0q-.9434-1.2789-.9433-4.4473t.9433-4.4483A3.8385,3.8385,0,0,1,984.1238,146.1128Zm-.0166,1.9365a1.4525,1.4525,0,0,0-1.4482.7754,12.2849,12.2849,0,0,0,0,6.0322,1.4532,1.4532,0,0,0,1.4482.7764,1.4988,1.4988,0,0,0,1.4883-.7764,12.0429,12.0429,0,0,0,0-6.0322A1.4982,1.4982,0,0,0,984.1072,148.0493Z"/>
    <path d="M994.1883,146.1128a3.8568,3.8568,0,0,1,3.3115,1.28q.9433,1.28.9443,4.4483t-.9443,4.4473a4.9042,4.9042,0,0,1-6.6084,0q-.9433-1.2789-.9434-4.4473t.9434-4.4483A3.8383,3.8383,0,0,1,994.1883,146.1128Zm-.0166,1.9365a1.4526,1.4526,0,0,0-1.4483.7754,12.2881,12.2881,0,0,0,0,6.0322,1.4532,1.4532,0,0,0,1.4483.7764,1.4988,1.4988,0,0,0,1.4883-.7764,12.046,12.046,0,0,0,0-6.0322A1.4982,1.4982,0,0,0,994.1717,148.0493Z"/>
    <path d="M1004.2527,146.1128a3.8566,3.8566,0,0,1,3.3115,1.28q.9435,1.28.9444,4.4483t-.9444,4.4473a4.904,4.904,0,0,1-6.6083,0q-.9435-1.2789-.9434-4.4473t.9434-4.4483A3.8381,3.8381,0,0,1,1004.2527,146.1128Zm-.0166,1.9365a1.4525,1.4525,0,0,0-1.4482.7754,12.2849,12.2849,0,0,0,0,6.0322,1.4532,1.4532,0,0,0,1.4482.7764,1.4987,1.4987,0,0,0,1.4883-.7764,12.0429,12.0429,0,0,0,0-6.0322A1.4981,1.4981,0,0,0,1004.2361,148.0493Z"/>
  </g>
  <g>
    <path d="M855.2391,180.1128a3.8568,3.8568,0,0,1,3.3115,1.28q.9433,1.28.9443,4.4483t-.9443,4.4473a4.9042,4.9042,0,0,1-6.6084,0q-.9433-1.2789-.9434-4.4473t.9434-4.4483A3.8383,3.8383,0,0,1,855.2391,180.1128Zm-.0166,1.9365a1.4526,1.4526,0,0,0-1.4483.7754,12.2849,12.2849,0,0,0,0,6.0322,1.4532,1.4532,0,0,0,1.4483.7764,1.4986,1.4986,0,0,0,1.4882-.7764,12.0429,12.0429,0,0,0,0-6.0322A1.498,1.498,0,0,0,855.2225,182.0493Z"/>
    <path d="M865.3035,180.1128a3.8568,3.8568,0,0,1,3.3115,1.28q.9434,1.28.9444,4.4483t-.9444,4.4473a4.9042,4.9042,0,0,1-6.6084,0q-.9434-1.2789-.9433-4.4473t.9433-4.4483A3.8383,3.8383,0,0,1,865.3035,180.1128Zm-.0166,1.9365a1.4525,1.4525,0,0,0-1.4482.7754,12.2849,12.2849,0,0,0,0,6.0322,1.4531,1.4531,0,0,0,1.4482.7764,1.4988,1.4988,0,0,0,1.4883-.7764,12.0429,12.0429,0,0,0,0-6.0322A1.4982,1.4982,0,0,0,865.2869,182.0493Z"/>
    <path d="M875.368,180.1128a3.8568,3.8568,0,0,1,3.3115,1.28q.9434,1.28.9443,4.4483t-.9443,4.4473a4.9042,4.9042,0,0,1-6.6084,0q-.9434-1.2789-.9434-4.4473t.9434-4.4483A3.8383,3.8383,0,0,1,875.368,180.1128Zm-.0166,1.9365a1.4526,1.4526,0,0,0-1.4483.7754,12.2849,12.2849,0,0,0,0,6.0322,1.4532,1.4532,0,0,0,1.4483.7764,1.4986,1.4986,0,0,0,1.4882-.7764,12.0429,12.0429,0,0,0,0-6.0322A1.498,1.498,0,0,0,875.3514,182.0493Z"/>
    <path d="M885.4324,180.1128a3.8567,3.8567,0,0,1,3.3115,1.28q.9433,1.28.9444,4.4483t-.9444,4.4473a4.9042,4.9042,0,0,1-6.6084,0q-.9433-1.2789-.9433-4.4473t.9433-4.4483A3.8385,3.8385,0,0,1,885.4324,180.1128Zm-.0166,1.9365a1.4525,1.4525,0,0,0-1.4482.7754,12.2849,12.2849,0,0,0,0,6.0322,1.4531,1.4531,0,0,0,1.4482.7764,1.4988,1.4988,0,0,0,1.4883-.7764,12.0429,12.0429,0,0,0,0-6.0322A1.4982,1.4982,0,0,0,885.4158,182.0493Z"/>
    <path d="M895.4969,180.1128a3.8568,3.8568,0,0,1,3.3115,1.28q.9434,1.28.9443,4.4483t-.9443,4.4473a4.9042,4.9042,0,0,1-6.6084,0q-.9434-1.2789-.9434-4.4473t.9434-4.4483A3.8383,3.8383,0,0,1,895.4969,180.1128Zm-.0166,1.9365a1.4526,1.4526,0,0,0-1.4483.7754,12.2849,12.2849,0,0,0,0,6.0322,1.4532,1.4532,0,0,0,1.4483.7764,1.4986,1.4986,0,0,0,1.4882-.7764,12.0429,12.0429,0,0,0,0-6.0322A1.498,1.498,0,0,0,895.48,182.0493Z"/>
    <path d="M905.5613,180.1128a3.8567,3.8567,0,0,1,3.3115,1.28q.9434,1.28.9444,4.4483t-.9444,4.4473a4.9042,4.9042,0,0,1-6.6084,0q-.9434-1.2789-.9433-4.4473t.9433-4.4483A3.8385,3.8385,0,0,1,905.5613,180.1128Zm-.0166,1.9365a1.4525,1.4525,0,0,0-1.4482.7754,12.2849,12.2849,0,0,0,0,6.0322,1.4532,1.4532,0,0,0,1.4482.7764,1.4988,1.4988,0,0,0,1.4883-.7764,12.0429,12.0429,0,0,0,0-6.0322A1.4982,1.4982,0,0,0,905.5447,182.0493Z"/>
    <path d="M915.6258,180.1128a3.8568,3.8568,0,0,1,3.3115,1.28q.9433,1.28.9443,4.4483t-.9443,4.4473a4.9042,4.9042,0,0,1-6.6084,0q-.9433-1.2789-.9434-4.4473t.9434-4.4483A3.8383,3.8383,0,0,1,915.6258,180.1128Zm-.0166,1.9365a1.4526,1.4526,0,0,0-1.4483.7754,12.2881,12.2881,0,0,0,0,6.0322,1.4532,1.4532,0,0,0,1.4483.7764,1.4988,1.4988,0,0,0,1.4883-.7764,12.046,12.046,0,0,0,0-6.0322A1.4982,1.4982,0,0,0,915.6092,182.0493Z"/>
    <path d="M926.0418,191.3608H923.61v-7.7763a6.3746,6.3746,0,0,1,.0958-1.1993l-2.5762.6719-.2881-1.6318,2.7685-1.1045h2.4317Z"/>
  </g>
  <g>
    <path d="M955.0711,180.1128a3.8568,3.8568,0,0,1,3.3115,1.28q.9433,1.28.9443,4.4483t-.9443,4.4473a4.9042,4.9042,0,0,1-6.6084,0q-.9433-1.2789-.9433-4.4473t.9433-4.4483A3.8383,3.8383,0,0,1,955.0711,180.1128Zm-.0166,1.9365a1.4526,1.4526,0,0,0-1.4483.7754,12.2881,12.2881,0,0,0,0,6.0322,1.4532,1.4532,0,0,0,1.4483.7764,1.4988,1.4988,0,0,0,1.4883-.7764,12.0429,12.0429,0,0,0,0-6.0322A1.4982,1.4982,0,0,0,955.0545,182.0493Z"/>
    <path d="M965.1355,180.1128a3.8569,3.8569,0,0,1,3.3116,1.28q.9434,1.28.9443,4.4483t-.9443,4.4473a4.9042,4.9042,0,0,1-6.6084,0q-.9434-1.2789-.9434-4.4473t.9434-4.4483A3.8381,3.8381,0,0,1,965.1355,180.1128Zm-.0166,1.9365a1.4525,1.4525,0,0,0-1.4482.7754,12.2849,12.2849,0,0,0,0,6.0322,1.4532,1.4532,0,0,0,1.4482.7764,1.4986,1.4986,0,0,0,1.4883-.7764,12.0429,12.0429,0,0,0,0-6.0322A1.498,1.498,0,0,0,965.1189,182.0493Z"/>
    <path d="M975.2,180.1128a3.8568,3.8568,0,0,1,3.3115,1.28q.9434,1.28.9444,4.4483t-.9444,4.4473a4.9042,4.9042,0,0,1-6.6084,0q-.9434-1.2789-.9433-4.4473t.9433-4.4483A3.8383,3.8383,0,0,1,975.2,180.1128Zm-.0166,1.9365a1.4526,1.4526,0,0,0-1.4483.7754,12.2881,12.2881,0,0,0,0,6.0322,1.4532,1.4532,0,0,0,1.4483.7764,1.4988,1.4988,0,0,0,1.4883-.7764,12.0429,12.0429,0,0,0,0-6.0322A1.4982,1.4982,0,0,0,975.1834,182.0493Z"/>
    <path d="M985.616,191.3608h-2.4316v-7.7763a6.3754,6.3754,0,0,1,.0957-1.1993l-2.5762.6719-.2881-1.6318,2.7686-1.1045h2.4316Z"/>
    <path d="M992.4793,191.3608h-2.4317v-7.7763a6.3746,6.3746,0,0,1,.0958-1.1993l-2.5762.6719-.2881-1.6318,2.7685-1.1045h2.4317Z"/>
    <path d="M999.3426,191.3608h-2.4317v-7.7763a6.3838,6.3838,0,0,1,.0957-1.1993l-2.5761.6719-.2881-1.6318,2.7685-1.1045h2.4317Z"/>
    <path d="M1006.2059,191.3608h-2.4317v-7.7763a6.3838,6.3838,0,0,1,.0957-1.1993l-2.5762.6719-.288-1.6318,2.7685-1.1045h2.4317Z"/>
  </g>
  <g>
    <path d="M855.2391,214.1128a3.8568,3.8568,0,0,1,3.3115,1.28q.9433,1.28.9443,4.4483t-.9443,4.4473a4.9042,4.9042,0,0,1-6.6084,0q-.9433-1.2789-.9434-4.4473t.9434-4.4483A3.8383,3.8383,0,0,1,855.2391,214.1128Zm-.0166,1.9365a1.4526,1.4526,0,0,0-1.4483.7754,12.2849,12.2849,0,0,0,0,6.0322,1.4532,1.4532,0,0,0,1.4483.7764,1.4986,1.4986,0,0,0,1.4882-.7764,12.0429,12.0429,0,0,0,0-6.0322A1.498,1.498,0,0,0,855.2225,216.0493Z"/>
    <path d="M865.3035,214.1128a3.8568,3.8568,0,0,1,3.3115,1.28q.9434,1.28.9444,4.4483t-.9444,4.4473a4.9042,4.9042,0,0,1-6.6084,0q-.9434-1.2789-.9433-4.4473t.9433-4.4483A3.8383,3.8383,0,0,1,865.3035,214.1128Zm-.0166,1.9365a1.4525,1.4525,0,0,0-1.4482.7754,12.2849,12.2849,0,0,0,0,6.0322,1.4531,1.4531,0,0,0,1.4482.7764,1.4988,1.4988,0,0,0,1.4883-.7764,12.0429,12.0429,0,0,0,0-6.0322A1.4982,1.4982,0,0,0,865.2869,216.0493Z"/>
    <path d="M875.368,214.1128a3.8568,3.8568,0,0,1,3.3115,1.28q.9434,1.28.9443,4.4483t-.9443,4.4473a4.9042,4.9042,0,0,1-6.6084,0q-.9434-1.2789-.9434-4.4473t.9434-4.4483A3.8383,3.8383,0,0,1,875.368,214.1128Zm-.0166,1.9365a1.4526,1.4526,0,0,0-1.4483.7754,12.2849,12.2849,0,0,0,0,6.0322,1.4532,1.4532,0,0,0,1.4483.7764,1.4986,1.4986,0,0,0,1.4882-.7764,12.0429,12.0429,0,0,0,0-6.0322A1.498,1.498,0,0,0,875.3514,216.0493Z"/>
    <path d="M885.4324,214.1128a3.8567,3.8567,0,0,1,3.3115,1.28q.9433,1.28.9444,4.4483t-.9444,4.4473a4.9042,4.9042,0,0,1-6.6084,0q-.9433-1.2789-.9433-4.4473t.9433-4.4483A3.8385,3.8385,0,0,1,885.4324,214.1128Zm-.0166,1.9365a1.4525,1.4525,0,0,0-1.4482.7754,12.2849,12.2849,0,0,0,0,6.0322,1.4531,1.4531,0,0,0,1.4482.7764,1.4988,1.4988,0,0,0,1.4883-.7764,12.0429,12.0429,0,0,0,0-6.0322A1.4982,1.4982,0,0,0,885.4158,216.0493Z"/>
    <path d="M895.4969,214.1128a3.8568,3.8568,0,0,1,3.3115,1.28q.9434,1.28.9443,4.4483t-.9443,4.4473a4.9042,4.9042,0,0,1-6.6084,0q-.9434-1.2789-.9434-4.4473t.9434-4.4483A3.8383,3.8383,0,0,1,895.4969,214.1128Zm-.0166,1.9365a1.4526,1.4526,0,0,0-1.4483.7754,12.2849,12.2849,0,0,0,0,6.0322,1.4532,1.4532,0,0,0,1.4483.7764,1.4986,1.4986,0,0,0,1.4882-.7764,12.0429,12.0429,0,0,0,0-6.0322A1.498,1.498,0,0,0,895.48,216.0493Z"/>
    <path d="M905.5613,214.1128a3.8567,3.8567,0,0,1,3.3115,1.28q.9434,1.28.9444,4.4483t-.9444,4.4473a4.9042,4.9042,0,0,1-6.6084,0q-.9434-1.2789-.9433-4.4473t.9433-4.4483A3.8385,3.8385,0,0,1,905.5613,214.1128Zm-.0166,1.9365a1.4525,1.4525,0,0,0-1.4482.7754,12.2849,12.2849,0,0,0,0,6.0322,1.4532,1.4532,0,0,0,1.4482.7764,1.4988,1.4988,0,0,0,1.4883-.7764,12.0429,12.0429,0,0,0,0-6.0322A1.4982,1.4982,0,0,0,905.5447,216.0493Z"/>
    <path d="M915.9773,225.3608h-2.4316v-7.7763a6.3754,6.3754,0,0,1,.0957-1.1993l-2.5762.6719-.2881-1.6318,2.7686-1.1045h2.4316Z"/>
    <path d="M922.4891,214.1128a3.8568,3.8568,0,0,1,3.3115,1.28q.9433,1.28.9443,4.4483t-.9443,4.4473a4.9042,4.9042,0,0,1-6.6084,0q-.9433-1.2789-.9434-4.4473t.9434-4.4483A3.8383,3.8383,0,0,1,922.4891,214.1128Zm-.0166,1.9365a1.4526,1.4526,0,0,0-1.4483.7754,12.2849,12.2849,0,0,0,0,6.0322,1.4532,1.4532,0,0,0,1.4483.7764,1.4986,1.4986,0,0,0,1.4882-.7764,12.0429,12.0429,0,0,0,0-6.0322A1.498,1.498,0,0,0,922.4725,216.0493Z"/>
  </g>
  <g>
    <path d="M953.4705,214.1128a3.8568,3.8568,0,0,1,3.3115,1.28q.9433,1.28.9444,4.4483t-.9444,4.4473a4.9042,4.9042,0,0,1-6.6084,0q-.9433-1.2789-.9433-4.4473t.9433-4.4483A3.8383,3.8383,0,0,1,953.4705,214.1128Zm-.0166,1.9365a1.4525,1.4525,0,0,0-1.4482.7754,12.2849,12.2849,0,0,0,0,6.0322,1.4531,1.4531,0,0,0,1.4482.7764,1.4988,1.4988,0,0,0,1.4883-.7764,12.0429,12.0429,0,0,0,0-6.0322A1.4982,1.4982,0,0,0,953.4539,216.0493Z"/>
    <path d="M963.8855,225.3608h-2.4316v-7.7763a6.3754,6.3754,0,0,1,.0957-1.1993l-2.5762.6719-.2881-1.6318,2.7686-1.1045h2.4316Z"/>
    <path d="M970.3973,214.1128a3.8568,3.8568,0,0,1,3.3115,1.28q.9434,1.28.9443,4.4483t-.9443,4.4473a4.9042,4.9042,0,0,1-6.6084,0q-.9434-1.2789-.9434-4.4473t.9434-4.4483A3.8383,3.8383,0,0,1,970.3973,214.1128Zm-.0166,1.9365a1.4526,1.4526,0,0,0-1.4483.7754,12.2849,12.2849,0,0,0,0,6.0322,1.4532,1.4532,0,0,0,1.4483.7764,1.4986,1.4986,0,0,0,1.4882-.7764,12.0429,12.0429,0,0,0,0-6.0322A1.498,1.498,0,0,0,970.3807,216.0493Z"/>
    <path d="M980.8133,225.3608h-2.4317v-7.7763a6.3838,6.3838,0,0,1,.0957-1.1993l-2.5761.6719-.2881-1.6318,2.7685-1.1045h2.4317Z"/>
    <path d="M987.325,214.1128a3.8568,3.8568,0,0,1,3.3115,1.28q.9434,1.28.9444,4.4483t-.9444,4.4473a4.9042,4.9042,0,0,1-6.6084,0q-.9434-1.2789-.9433-4.4473t.9433-4.4483A3.8383,3.8383,0,0,1,987.325,214.1128Zm-.0166,1.9365a1.4526,1.4526,0,0,0-1.4483.7754,12.2881,12.2881,0,0,0,0,6.0322,1.4532,1.4532,0,0,0,1.4483.7764,1.4988,1.4988,0,0,0,1.4883-.7764,12.0429,12.0429,0,0,0,0-6.0322A1.4982,1.4982,0,0,0,987.3084,216.0493Z"/>
    <path d="M997.741,225.3608h-2.4316v-7.7763a6.3754,6.3754,0,0,1,.0957-1.1993l-2.5762.6719-.2881-1.6318,2.7686-1.1045h2.4316Z"/>
    <path d="M1004.2527,214.1128a3.8566,3.8566,0,0,1,3.3115,1.28q.9435,1.28.9444,4.4483t-.9444,4.4473a4.904,4.904,0,0,1-6.6083,0q-.9435-1.2789-.9434-4.4473t.9434-4.4483A3.8381,3.8381,0,0,1,1004.2527,214.1128Zm-.0166,1.9365a1.4525,1.4525,0,0,0-1.4482.7754,12.2849,12.2849,0,0,0,0,6.0322,1.4532,1.4532,0,0,0,1.4482.7764,1.4987,1.4987,0,0,0,1.4883-.7764,12.0429,12.0429,0,0,0,0-6.0322A1.4981,1.4981,0,0,0,1004.2361,216.0493Z"/>
  </g>
  <g>
    <path d="M856.8387,250.1128a3.8568,3.8568,0,0,1,3.3115,1.28q.9433,1.28.9443,4.4483t-.9443,4.4473a4.9042,4.9042,0,0,1-6.6084,0q-.9433-1.2789-.9434-4.4473t.9434-4.4483A3.8383,3.8383,0,0,1,856.8387,250.1128Zm-.0166,1.9365a1.4526,1.4526,0,0,0-1.4483.7754,12.2849,12.2849,0,0,0,0,6.0322,1.4532,1.4532,0,0,0,1.4483.7764,1.4986,1.4986,0,0,0,1.4882-.7764,12.0429,12.0429,0,0,0,0-6.0322A1.498,1.498,0,0,0,856.8221,252.0493Z"/>
    <path d="M866.9031,250.1128a3.8567,3.8567,0,0,1,3.3115,1.28q.9433,1.28.9444,4.4483t-.9444,4.4473a4.9042,4.9042,0,0,1-6.6084,0q-.9433-1.2789-.9433-4.4473t.9433-4.4483A3.8385,3.8385,0,0,1,866.9031,250.1128Zm-.0166,1.9365a1.4525,1.4525,0,0,0-1.4482.7754,12.2849,12.2849,0,0,0,0,6.0322,1.4531,1.4531,0,0,0,1.4482.7764,1.4988,1.4988,0,0,0,1.4883-.7764,12.0429,12.0429,0,0,0,0-6.0322A1.4982,1.4982,0,0,0,866.8865,252.0493Z"/>
    <path d="M876.9676,250.1128a3.8568,3.8568,0,0,1,3.3115,1.28q.9434,1.28.9443,4.4483t-.9443,4.4473a4.9042,4.9042,0,0,1-6.6084,0q-.9434-1.2789-.9434-4.4473t.9434-4.4483A3.8383,3.8383,0,0,1,876.9676,250.1128Zm-.0166,1.9365a1.4526,1.4526,0,0,0-1.4483.7754,12.2849,12.2849,0,0,0,0,6.0322,1.4532,1.4532,0,0,0,1.4483.7764,1.4986,1.4986,0,0,0,1.4882-.7764,12.0429,12.0429,0,0,0,0-6.0322A1.498,1.498,0,0,0,876.951,252.0493Z"/>
    <path d="M887.032,250.1128a3.8567,3.8567,0,0,1,3.3115,1.28q.9435,1.28.9444,4.4483t-.9444,4.4473a4.9042,4.9042,0,0,1-6.6084,0q-.9434-1.2789-.9433-4.4473t.9433-4.4483A3.8385,3.8385,0,0,1,887.032,250.1128Zm-.0166,1.9365a1.4525,1.4525,0,0,0-1.4482.7754,12.2849,12.2849,0,0,0,0,6.0322,1.4532,1.4532,0,0,0,1.4482.7764,1.4988,1.4988,0,0,0,1.4883-.7764,12.0429,12.0429,0,0,0,0-6.0322A1.4982,1.4982,0,0,0,887.0154,252.0493Z"/>
    <path d="M897.0965,250.1128a3.8568,3.8568,0,0,1,3.3115,1.28q.9433,1.28.9443,4.4483t-.9443,4.4473a4.9042,4.9042,0,0,1-6.6084,0q-.9434-1.2789-.9434-4.4473t.9434-4.4483A3.8383,3.8383,0,0,1,897.0965,250.1128Zm-.0166,1.9365a1.4526,1.4526,0,0,0-1.4483.7754,12.2881,12.2881,0,0,0,0,6.0322,1.4532,1.4532,0,0,0,1.4483.7764,1.4988,1.4988,0,0,0,1.4883-.7764,12.046,12.046,0,0,0,0-6.0322A1.4982,1.4982,0,0,0,897.08,252.0493Z"/>
    <path d="M907.1609,250.1128a3.8569,3.8569,0,0,1,3.3116,1.28q.9434,1.28.9443,4.4483t-.9443,4.4473a4.9042,4.9042,0,0,1-6.6084,0q-.9435-1.2789-.9434-4.4473t.9434-4.4483A3.8381,3.8381,0,0,1,907.1609,250.1128Zm-.0166,1.9365a1.4525,1.4525,0,0,0-1.4482.7754,12.2849,12.2849,0,0,0,0,6.0322,1.4532,1.4532,0,0,0,1.4482.7764,1.4987,1.4987,0,0,0,1.4883-.7764,12.0429,12.0429,0,0,0,0-6.0322A1.4981,1.4981,0,0,0,907.1443,252.0493Z"/>
    <path d="M917.5769,261.3608h-2.4316v-7.7763a6.3838,6.3838,0,0,1,.0957-1.1993l-2.5762.6719-.2881-1.6318,2.7686-1.1045h2.4316Z"/>
    <path d="M924.44,261.3608h-2.4316v-7.7763a6.3754,6.3754,0,0,1,.0957-1.1993l-2.5762.6719-.2881-1.6318,2.7686-1.1045H924.44Z"/>
  </g>
  <g>
    <path d="M855.2391,286.1128a3.8568,3.8568,0,0,1,3.3115,1.28q.9433,1.28.9443,4.4483t-.9443,4.4473a4.9042,4.9042,0,0,1-6.6084,0q-.9433-1.2789-.9434-4.4473t.9434-4.4483A3.8383,3.8383,0,0,1,855.2391,286.1128Zm-.0166,1.9365a1.4526,1.4526,0,0,0-1.4483.7754,12.2849,12.2849,0,0,0,0,6.0322,1.4532,1.4532,0,0,0,1.4483.7764,1.4986,1.4986,0,0,0,1.4882-.7764,12.0429,12.0429,0,0,0,0-6.0322A1.498,1.498,0,0,0,855.2225,288.0493Z"/>
    <path d="M865.3035,286.1128a3.8568,3.8568,0,0,1,3.3115,1.28q.9434,1.28.9444,4.4483t-.9444,4.4473a4.9042,4.9042,0,0,1-6.6084,0q-.9434-1.2789-.9433-4.4473t.9433-4.4483A3.8383,3.8383,0,0,1,865.3035,286.1128Zm-.0166,1.9365a1.4525,1.4525,0,0,0-1.4482.7754,12.2849,12.2849,0,0,0,0,6.0322,1.4531,1.4531,0,0,0,1.4482.7764,1.4988,1.4988,0,0,0,1.4883-.7764,12.0429,12.0429,0,0,0,0-6.0322A1.4982,1.4982,0,0,0,865.2869,288.0493Z"/>
    <path d="M875.368,286.1128a3.8568,3.8568,0,0,1,3.3115,1.28q.9434,1.28.9443,4.4483t-.9443,4.4473a4.9042,4.9042,0,0,1-6.6084,0q-.9434-1.2789-.9434-4.4473t.9434-4.4483A3.8383,3.8383,0,0,1,875.368,286.1128Zm-.0166,1.9365a1.4526,1.4526,0,0,0-1.4483.7754,12.2849,12.2849,0,0,0,0,6.0322,1.4532,1.4532,0,0,0,1.4483.7764,1.4986,1.4986,0,0,0,1.4882-.7764,12.0429,12.0429,0,0,0,0-6.0322A1.498,1.498,0,0,0,875.3514,288.0493Z"/>
    <path d="M885.4324,286.1128a3.8567,3.8567,0,0,1,3.3115,1.28q.9433,1.28.9444,4.4483t-.9444,4.4473a4.9042,4.9042,0,0,1-6.6084,0q-.9433-1.2789-.9433-4.4473t.9433-4.4483A3.8385,3.8385,0,0,1,885.4324,286.1128Zm-.0166,1.9365a1.4525,1.4525,0,0,0-1.4482.7754,12.2849,12.2849,0,0,0,0,6.0322,1.4531,1.4531,0,0,0,1.4482.7764,1.4988,1.4988,0,0,0,1.4883-.7764,12.0429,12.0429,0,0,0,0-6.0322A1.4982,1.4982,0,0,0,885.4158,288.0493Z"/>
    <path d="M895.4969,286.1128a3.8568,3.8568,0,0,1,3.3115,1.28q.9434,1.28.9443,4.4483t-.9443,4.4473a4.9042,4.9042,0,0,1-6.6084,0q-.9434-1.2789-.9434-4.4473t.9434-4.4483A3.8383,3.8383,0,0,1,895.4969,286.1128Zm-.0166,1.9365a1.4526,1.4526,0,0,0-1.4483.7754,12.2849,12.2849,0,0,0,0,6.0322,1.4532,1.4532,0,0,0,1.4483.7764,1.4986,1.4986,0,0,0,1.4882-.7764,12.0429,12.0429,0,0,0,0-6.0322A1.498,1.498,0,0,0,895.48,288.0493Z"/>
    <path d="M905.9129,297.3608h-2.4317v-7.7763a6.3838,6.3838,0,0,1,.0957-1.1993l-2.5761.6719-.2881-1.6318,2.7685-1.1045h2.4317Z"/>
    <path d="M912.4246,286.1128a3.8568,3.8568,0,0,1,3.3115,1.28q.9434,1.28.9444,4.4483t-.9444,4.4473a4.9042,4.9042,0,0,1-6.6084,0q-.9434-1.2789-.9433-4.4473t.9433-4.4483A3.8383,3.8383,0,0,1,912.4246,286.1128Zm-.0166,1.9365a1.4525,1.4525,0,0,0-1.4482.7754,12.2849,12.2849,0,0,0,0,6.0322,1.4531,1.4531,0,0,0,1.4482.7764,1.4988,1.4988,0,0,0,1.4883-.7764,12.0429,12.0429,0,0,0,0-6.0322A1.4982,1.4982,0,0,0,912.408,288.0493Z"/>
    <path d="M922.4891,286.1128a3.8568,3.8568,0,0,1,3.3115,1.28q.9433,1.28.9443,4.4483t-.9443,4.4473a4.9042,4.9042,0,0,1-6.6084,0q-.9433-1.2789-.9434-4.4473t.9434-4.4483A3.8383,3.8383,0,0,1,922.4891,286.1128Zm-.0166,1.9365a1.4526,1.4526,0,0,0-1.4483.7754,12.2849,12.2849,0,0,0,0,6.0322,1.4532,1.4532,0,0,0,1.4483.7764,1.4986,1.4986,0,0,0,1.4882-.7764,12.0429,12.0429,0,0,0,0-6.0322A1.498,1.498,0,0,0,922.4725,288.0493Z"/>
  </g>
  <g>
    <path d="M856.8387,320.1128a3.8568,3.8568,0,0,1,3.3115,1.28q.9433,1.28.9443,4.4483t-.9443,4.4473a4.9042,4.9042,0,0,1-6.6084,0q-.9433-1.2789-.9434-4.4473t.9434-4.4483A3.8383,3.8383,0,0,1,856.8387,320.1128Zm-.0166,1.9365a1.4526,1.4526,0,0,0-1.4483.7754,12.2849,12.2849,0,0,0,0,6.0322,1.4532,1.4532,0,0,0,1.4483.7764,1.4986,1.4986,0,0,0,1.4882-.7764,12.0429,12.0429,0,0,0,0-6.0322A1.498,1.498,0,0,0,856.8221,322.0493Z"/>
    <path d="M866.9031,320.1128a3.8567,3.8567,0,0,1,3.3115,1.28q.9433,1.28.9444,4.4483t-.9444,4.4473a4.9042,4.9042,0,0,1-6.6084,0q-.9433-1.2789-.9433-4.4473t.9433-4.4483A3.8385,3.8385,0,0,1,866.9031,320.1128Zm-.0166,1.9365a1.4525,1.4525,0,0,0-1.4482.7754,12.2849,12.2849,0,0,0,0,6.0322,1.4531,1.4531,0,0,0,1.4482.7764,1.4988,1.4988,0,0,0,1.4883-.7764,12.0429,12.0429,0,0,0,0-6.0322A1.4982,1.4982,0,0,0,866.8865,322.0493Z"/>
    <path d="M876.9676,320.1128a3.8568,3.8568,0,0,1,3.3115,1.28q.9434,1.28.9443,4.4483t-.9443,4.4473a4.9042,4.9042,0,0,1-6.6084,0q-.9434-1.2789-.9434-4.4473t.9434-4.4483A3.8383,3.8383,0,0,1,876.9676,320.1128Zm-.0166,1.9365a1.4526,1.4526,0,0,0-1.4483.7754,12.2849,12.2849,0,0,0,0,6.0322,1.4532,1.4532,0,0,0,1.4483.7764,1.4986,1.4986,0,0,0,1.4882-.7764,12.0429,12.0429,0,0,0,0-6.0322A1.498,1.498,0,0,0,876.951,322.0493Z"/>
    <path d="M887.032,320.1128a3.8567,3.8567,0,0,1,3.3115,1.28q.9435,1.28.9444,4.4483t-.9444,4.4473a4.9042,4.9042,0,0,1-6.6084,0q-.9434-1.2789-.9433-4.4473t.9433-4.4483A3.8385,3.8385,0,0,1,887.032,320.1128Zm-.0166,1.9365a1.4525,1.4525,0,0,0-1.4482.7754,12.2849,12.2849,0,0,0,0,6.0322,1.4532,1.4532,0,0,0,1.4482.7764,1.4988,1.4988,0,0,0,1.4883-.7764,12.0429,12.0429,0,0,0,0-6.0322A1.4982,1.4982,0,0,0,887.0154,322.0493Z"/>
    <path d="M897.0965,320.1128a3.8568,3.8568,0,0,1,3.3115,1.28q.9433,1.28.9443,4.4483t-.9443,4.4473a4.9042,4.9042,0,0,1-6.6084,0q-.9434-1.2789-.9434-4.4473t.9434-4.4483A3.8383,3.8383,0,0,1,897.0965,320.1128Zm-.0166,1.9365a1.4526,1.4526,0,0,0-1.4483.7754,12.2881,12.2881,0,0,0,0,6.0322,1.4532,1.4532,0,0,0,1.4483.7764,1.4988,1.4988,0,0,0,1.4883-.7764,12.046,12.046,0,0,0,0-6.0322A1.4982,1.4982,0,0,0,897.08,322.0493Z"/>
    <path d="M907.5125,331.3608h-2.4316v-7.7763a6.3754,6.3754,0,0,1,.0957-1.1993l-2.5762.6719-.2881-1.6318,2.7686-1.1045h2.4316Z"/>
    <path d="M914.0242,320.1128a3.8567,3.8567,0,0,1,3.3115,1.28q.9434,1.28.9444,4.4483t-.9444,4.4473a4.9042,4.9042,0,0,1-6.6084,0q-.9434-1.2789-.9433-4.4473t.9433-4.4483A3.8385,3.8385,0,0,1,914.0242,320.1128Zm-.0166,1.9365a1.4525,1.4525,0,0,0-1.4482.7754,12.2849,12.2849,0,0,0,0,6.0322,1.4531,1.4531,0,0,0,1.4482.7764,1.4988,1.4988,0,0,0,1.4883-.7764,12.0429,12.0429,0,0,0,0-6.0322A1.4982,1.4982,0,0,0,914.0076,322.0493Z"/>
    <path d="M924.44,331.3608h-2.4316v-7.7763a6.3754,6.3754,0,0,1,.0957-1.1993l-2.5762.6719-.2881-1.6318,2.7686-1.1045H924.44Z"/>
  </g>
  <g>
    <path d="M856.8387,354.1128a3.8568,3.8568,0,0,1,3.3115,1.28q.9433,1.28.9443,4.4483t-.9443,4.4473a4.9042,4.9042,0,0,1-6.6084,0q-.9433-1.2789-.9434-4.4473t.9434-4.4483A3.8383,3.8383,0,0,1,856.8387,354.1128Zm-.0166,1.9365a1.4526,1.4526,0,0,0-1.4483.7754,12.2849,12.2849,0,0,0,0,6.0322,1.4532,1.4532,0,0,0,1.4483.7764,1.4986,1.4986,0,0,0,1.4882-.7764,12.0429,12.0429,0,0,0,0-6.0322A1.498,1.498,0,0,0,856.8221,356.0493Z"/>
    <path d="M866.9031,354.1128a3.8567,3.8567,0,0,1,3.3115,1.28q.9433,1.28.9444,4.4483t-.9444,4.4473a4.9042,4.9042,0,0,1-6.6084,0q-.9433-1.2789-.9433-4.4473t.9433-4.4483A3.8385,3.8385,0,0,1,866.9031,354.1128Zm-.0166,1.9365a1.4525,1.4525,0,0,0-1.4482.7754,12.2849,12.2849,0,0,0,0,6.0322,1.4531,1.4531,0,0,0,1.4482.7764,1.4988,1.4988,0,0,0,1.4883-.7764,12.0429,12.0429,0,0,0,0-6.0322A1.4982,1.4982,0,0,0,866.8865,356.0493Z"/>
    <path d="M876.9676,354.1128a3.8568,3.8568,0,0,1,3.3115,1.28q.9434,1.28.9443,4.4483t-.9443,4.4473a4.9042,4.9042,0,0,1-6.6084,0q-.9434-1.2789-.9434-4.4473t.9434-4.4483A3.8383,3.8383,0,0,1,876.9676,354.1128Zm-.0166,1.9365a1.4526,1.4526,0,0,0-1.4483.7754,12.2849,12.2849,0,0,0,0,6.0322,1.4532,1.4532,0,0,0,1.4483.7764,1.4986,1.4986,0,0,0,1.4882-.7764,12.0429,12.0429,0,0,0,0-6.0322A1.498,1.498,0,0,0,876.951,356.0493Z"/>
    <path d="M887.032,354.1128a3.8567,3.8567,0,0,1,3.3115,1.28q.9435,1.28.9444,4.4483t-.9444,4.4473a4.9042,4.9042,0,0,1-6.6084,0q-.9434-1.2789-.9433-4.4473t.9433-4.4483A3.8385,3.8385,0,0,1,887.032,354.1128Zm-.0166,1.9365a1.4525,1.4525,0,0,0-1.4482.7754,12.2849,12.2849,0,0,0,0,6.0322,1.4532,1.4532,0,0,0,1.4482.7764,1.4988,1.4988,0,0,0,1.4883-.7764,12.0429,12.0429,0,0,0,0-6.0322A1.4982,1.4982,0,0,0,887.0154,356.0493Z"/>
    <path d="M897.0965,354.1128a3.8568,3.8568,0,0,1,3.3115,1.28q.9433,1.28.9443,4.4483t-.9443,4.4473a4.9042,4.9042,0,0,1-6.6084,0q-.9434-1.2789-.9434-4.4473t.9434-4.4483A3.8383,3.8383,0,0,1,897.0965,354.1128Zm-.0166,1.9365a1.4526,1.4526,0,0,0-1.4483.7754,12.2881,12.2881,0,0,0,0,6.0322,1.4532,1.4532,0,0,0,1.4483.7764,1.4988,1.4988,0,0,0,1.4883-.7764,12.046,12.046,0,0,0,0-6.0322A1.4982,1.4982,0,0,0,897.08,356.0493Z"/>
    <path d="M907.5125,365.3608h-2.4316v-7.7763a6.3754,6.3754,0,0,1,.0957-1.1993l-2.5762.6719-.2881-1.6318,2.7686-1.1045h2.4316Z"/>
    <path d="M914.3758,365.3608h-2.4317v-7.7763a6.3838,6.3838,0,0,1,.0957-1.1993l-2.5761.6719-.2881-1.6318,2.7685-1.1045h2.4317Z"/>
    <path d="M920.8875,354.1128a3.8568,3.8568,0,0,1,3.3115,1.28q.9434,1.28.9444,4.4483t-.9444,4.4473a4.9042,4.9042,0,0,1-6.6084,0q-.9434-1.2789-.9433-4.4473t.9433-4.4483A3.8383,3.8383,0,0,1,920.8875,354.1128Zm-.0166,1.9365a1.4526,1.4526,0,0,0-1.4483.7754,12.2881,12.2881,0,0,0,0,6.0322,1.4532,1.4532,0,0,0,1.4483.7764,1.4988,1.4988,0,0,0,1.4883-.7764,12.0429,12.0429,0,0,0,0-6.0322A1.4982,1.4982,0,0,0,920.8709,356.0493Z"/>
  </g>
  <g>
    <path d="M858.4383,395.1128a3.8568,3.8568,0,0,1,3.3115,1.28q.9433,1.28.9443,4.4483t-.9443,4.4473a4.9042,4.9042,0,0,1-6.6084,0q-.9433-1.2789-.9434-4.4473t.9434-4.4483A3.8383,3.8383,0,0,1,858.4383,395.1128Zm-.0166,1.9365a1.4526,1.4526,0,0,0-1.4483.7754,12.2881,12.2881,0,0,0,0,6.0322,1.4532,1.4532,0,0,0,1.4483.7764,1.4988,1.4988,0,0,0,1.4883-.7764,12.046,12.046,0,0,0,0-6.0322A1.4982,1.4982,0,0,0,858.4217,397.0493Z"/>
    <path d="M868.5027,395.1128a3.8566,3.8566,0,0,1,3.3115,1.28q.9435,1.28.9444,4.4483t-.9444,4.4473a4.904,4.904,0,0,1-6.6083,0q-.9435-1.2789-.9434-4.4473t.9434-4.4483A3.8381,3.8381,0,0,1,868.5027,395.1128Zm-.0166,1.9365a1.4525,1.4525,0,0,0-1.4482.7754,12.2849,12.2849,0,0,0,0,6.0322,1.4532,1.4532,0,0,0,1.4482.7764,1.4987,1.4987,0,0,0,1.4883-.7764,12.0429,12.0429,0,0,0,0-6.0322A1.4981,1.4981,0,0,0,868.4861,397.0493Z"/>
    <path d="M878.5672,395.1128a3.8568,3.8568,0,0,1,3.3115,1.28q.9434,1.28.9443,4.4483t-.9443,4.4473a4.9042,4.9042,0,0,1-6.6084,0q-.9434-1.2789-.9434-4.4473t.9434-4.4483A3.8383,3.8383,0,0,1,878.5672,395.1128Zm-.0166,1.9365a1.4526,1.4526,0,0,0-1.4483.7754,12.2881,12.2881,0,0,0,0,6.0322,1.4532,1.4532,0,0,0,1.4483.7764,1.4988,1.4988,0,0,0,1.4883-.7764,12.046,12.046,0,0,0,0-6.0322A1.4982,1.4982,0,0,0,878.5506,397.0493Z"/>
    <path d="M888.6316,395.1128a3.8569,3.8569,0,0,1,3.3116,1.28q.9433,1.28.9443,4.4483t-.9443,4.4473a4.9042,4.9042,0,0,1-6.6084,0q-.9433-1.2789-.9434-4.4473t.9434-4.4483A3.8381,3.8381,0,0,1,888.6316,395.1128Zm-.0166,1.9365a1.4525,1.4525,0,0,0-1.4482.7754,12.2849,12.2849,0,0,0,0,6.0322,1.4532,1.4532,0,0,0,1.4482.7764,1.4986,1.4986,0,0,0,1.4883-.7764,12.0429,12.0429,0,0,0,0-6.0322A1.498,1.498,0,0,0,888.615,397.0493Z"/>
    <path d="M898.6961,395.1128a3.8568,3.8568,0,0,1,3.3115,1.28q.9433,1.28.9443,4.4483t-.9443,4.4473a4.9042,4.9042,0,0,1-6.6084,0q-.9433-1.2789-.9433-4.4473t.9433-4.4483A3.8383,3.8383,0,0,1,898.6961,395.1128Zm-.0166,1.9365a1.4526,1.4526,0,0,0-1.4483.7754,12.2881,12.2881,0,0,0,0,6.0322,1.4532,1.4532,0,0,0,1.4483.7764,1.4988,1.4988,0,0,0,1.4883-.7764,12.0429,12.0429,0,0,0,0-6.0322A1.4982,1.4982,0,0,0,898.68,397.0493Z"/>
    <path d="M909.1121,406.3608h-2.4316v-7.7763a6.3754,6.3754,0,0,1,.0957-1.1993l-2.5762.6719-.2881-1.6318,2.7686-1.1045h2.4316Z"/>
    <path d="M915.9754,406.3608h-2.4317v-7.7763a6.3838,6.3838,0,0,1,.0957-1.1993l-2.5761.6719-.2881-1.6318,2.7685-1.1045h2.4317Z"/>
    <path d="M922.8387,406.3608H920.407v-7.7763a6.3838,6.3838,0,0,1,.0957-1.1993l-2.5761.6719-.2881-1.6318,2.7685-1.1045h2.4317Z"/>
  </g>
  <g>
    <path d="M855.2391,435.1137a3.8569,3.8569,0,0,1,3.3115,1.28q.9433,1.28.9443,4.4483t-.9443,4.4472a4.9039,4.9039,0,0,1-6.6084,0q-.9433-1.2787-.9434-4.4472t.9434-4.4483A3.8384,3.8384,0,0,1,855.2391,435.1137Zm-.0166,1.9366a1.4526,1.4526,0,0,0-1.4483.7754,12.2849,12.2849,0,0,0,0,6.0322,1.4532,1.4532,0,0,0,1.4483.7764,1.4986,1.4986,0,0,0,1.4882-.7764,12.0429,12.0429,0,0,0,0-6.0322A1.498,1.498,0,0,0,855.2225,437.05Z"/>
    <path d="M865.3035,435.1137a3.8569,3.8569,0,0,1,3.3115,1.28q.9434,1.28.9444,4.4483t-.9444,4.4472a4.9039,4.9039,0,0,1-6.6084,0q-.9434-1.2787-.9433-4.4472t.9433-4.4483A3.8384,3.8384,0,0,1,865.3035,435.1137Zm-.0166,1.9366a1.4525,1.4525,0,0,0-1.4482.7754,12.2849,12.2849,0,0,0,0,6.0322,1.4531,1.4531,0,0,0,1.4482.7764,1.4988,1.4988,0,0,0,1.4883-.7764,12.0429,12.0429,0,0,0,0-6.0322A1.4982,1.4982,0,0,0,865.2869,437.05Z"/>
    <path d="M875.368,435.1137a3.8569,3.8569,0,0,1,3.3115,1.28q.9434,1.28.9443,4.4483T878.68,445.29a4.9039,4.9039,0,0,1-6.6084,0q-.9434-1.2787-.9434-4.4472t.9434-4.4483A3.8384,3.8384,0,0,1,875.368,435.1137Zm-.0166,1.9366a1.4526,1.4526,0,0,0-1.4483.7754,12.2849,12.2849,0,0,0,0,6.0322,1.4532,1.4532,0,0,0,1.4483.7764,1.4986,1.4986,0,0,0,1.4882-.7764,12.0429,12.0429,0,0,0,0-6.0322A1.498,1.498,0,0,0,875.3514,437.05Z"/>
    <path d="M885.4324,435.1137a3.8567,3.8567,0,0,1,3.3115,1.28q.9433,1.28.9444,4.4483t-.9444,4.4472a4.9039,4.9039,0,0,1-6.6084,0q-.9433-1.2787-.9433-4.4472t.9433-4.4483A3.8385,3.8385,0,0,1,885.4324,435.1137Zm-.0166,1.9366a1.4525,1.4525,0,0,0-1.4482.7754,12.2849,12.2849,0,0,0,0,6.0322,1.4531,1.4531,0,0,0,1.4482.7764,1.4988,1.4988,0,0,0,1.4883-.7764,12.0429,12.0429,0,0,0,0-6.0322A1.4982,1.4982,0,0,0,885.4158,437.05Z"/>
    <path d="M895.8484,446.3618h-2.4316v-7.7764a6.375,6.375,0,0,1,.0957-1.1992l-2.5762.6719-.2881-1.6319,2.7686-1.1044h2.4316Z"/>
    <path d="M902.36,435.1137a3.8569,3.8569,0,0,1,3.3116,1.28q.9434,1.28.9443,4.4483t-.9443,4.4472a4.9039,4.9039,0,0,1-6.6084,0q-.9434-1.2787-.9434-4.4472t.9434-4.4483A3.8383,3.8383,0,0,1,902.36,435.1137Zm-.0166,1.9366a1.4525,1.4525,0,0,0-1.4482.7754,12.2849,12.2849,0,0,0,0,6.0322,1.4532,1.4532,0,0,0,1.4482.7764,1.4986,1.4986,0,0,0,1.4883-.7764,12.0429,12.0429,0,0,0,0-6.0322A1.498,1.498,0,0,0,902.3435,437.05Z"/>
    <path d="M912.4246,435.1137a3.8569,3.8569,0,0,1,3.3115,1.28q.9434,1.28.9444,4.4483t-.9444,4.4472a4.9039,4.9039,0,0,1-6.6084,0q-.9434-1.2787-.9433-4.4472t.9433-4.4483A3.8384,3.8384,0,0,1,912.4246,435.1137Zm-.0166,1.9366a1.4525,1.4525,0,0,0-1.4482.7754,12.2849,12.2849,0,0,0,0,6.0322,1.4531,1.4531,0,0,0,1.4482.7764,1.4988,1.4988,0,0,0,1.4883-.7764,12.0429,12.0429,0,0,0,0-6.0322A1.4982,1.4982,0,0,0,912.408,437.05Z"/>
    <path d="M922.4891,435.1137a3.8569,3.8569,0,0,1,3.3115,1.28q.9433,1.28.9443,4.4483t-.9443,4.4472a4.9039,4.9039,0,0,1-6.6084,0q-.9433-1.2787-.9434-4.4472t.9434-4.4483A3.8384,3.8384,0,0,1,922.4891,435.1137Zm-.0166,1.9366a1.4526,1.4526,0,0,0-1.4483.7754,12.2849,12.2849,0,0,0,0,6.0322,1.4532,1.4532,0,0,0,1.4483.7764,1.4986,1.4986,0,0,0,1.4882-.7764,12.0429,12.0429,0,0,0,0-6.0322A1.498,1.498,0,0,0,922.4725,437.05Z"/>
  </g>
  <rect class="d" x="934.5041" y="85.1195" width="1.6125" height="378.5506"/>
  <polyline class="c" points="312.201 597.211 312.201 495.767 199.065 495.767 199.065 444.398"/>
  <polyline class="c" points="230.891 439.425 230.891 467.743 352.201 467.743 352.201 553.614"/>
  <rect class="d" x="205.0537" y="412.3424" width="55.4861" height="27.0825"/>
  <rect class="h" x="260.5398" y="412.3424" width="131.4733" height="27.0825" transform="translate(652.5529 851.7672) rotate(180)"/>
  <g>
    <path d="M223.7654,421.3628h2.1914a.7679.7679,0,0,1,.85.85l.4024,9.4375h-2.1465l-.3428-8.5127h-.2539l-1.5508,6.3662a.8422.8422,0,0,1-.9238.7305H220.5a.8416.8416,0,0,1-.9238-.7305l-1.5655-6.3662h-.2539l-.2978,8.5127h-2.1475l.3731-9.4375a.7757.7757,0,0,1,.85-.85h2.1914a.8366.8366,0,0,1,.8945.73l1.2529,5.1289q.1186.4923.2686,1.4463h.1934q.0146-.0747.1123-.6113t.1562-.835l1.2373-5.1289A.8657.8657,0,0,1,223.7654,421.3628Z"/>
    <path d="M234.6639,428.9516H231.13l-.7451,2.6983h-2.3262l2.9668-9.69a.7142.7142,0,0,1,.2832-.4327.8377.8377,0,0,1,.5078-.164h2.1465a.7315.7315,0,0,1,.79.5967l2.9668,9.69H235.409Zm-.4922-1.76-.8653-3.1455q-.1787-.7457-.2089-.9688h-.4024c-.0195.0986-.0547.2578-.1045.4766s-.0889.3828-.1191.4922l-.8643,3.1455Z"/>
    <path d="M246.8885,431.65h-2.4l-.7754-3.1455a1.3044,1.3044,0,0,0-.3955-.6787,1.1536,1.1536,0,0,0-.708-.1866l-1.5948-.0146V431.65h-2.2363V421.3628q1.3857-.1349,3.9209-.1348a4.98,4.98,0,0,1,2.9365.6563,2.828,2.828,0,0,1,.8653,2.3857,3.0217,3.0217,0,0,1-.4551,1.7744,2.0681,2.0681,0,0,1-1.5127.7754v.0742a1.8525,1.8525,0,0,1,1.4609,1.5508Zm-5.8741-5.7695h1.64a1.8262,1.8262,0,0,0,1.2226-.3057,2.2081,2.2081,0,0,0,.0079-2.3037,1.8581,1.8581,0,0,0-1.2305-.2979l-1.64.0147Z"/>
  </g>
  <line class="c" x1="628.2009" y1="475.8514" x2="628.2009" y2="513.3981"/>
  <line class="c" x1="852.2011" y1="491.0823" x2="852.2011" y2="597.2105"/>
  <line class="c" x1="882.2011" y1="491.0823" x2="882.2011" y2="567.9431"/>
  <line class="c" x1="978.2012" y1="475.8514" x2="978.2012" y2="513.3981"/>
  <polygon points="199.325 454.812 208.208 454.724 203.691 447.075 199.173 439.425 194.807 447.162 190.441 454.899 199.325 454.812"/>
</svg>
